<?xml version="1.0" standalone="no"?>
<!DOCTYPE svg PUBLIC "-//W3C//DTD SVG 20010904//EN"
 "http://www.w3.org/TR/2001/REC-SVG-20010904/DTD/svg10.dtd">
<svg version="1.0" xmlns="http://www.w3.org/2000/svg"
 width="500.000000pt" height="500.000000pt" viewBox="0 0 500.000000 500.000000"
 preserveAspectRatio="xMidYMid meet">

<g transform="translate(0.000000,500.000000) scale(0.100000,-0.100000)"
fill="#000000" stroke="none">
<path d="M3160 3474 c-19 -2 -116 -11 -215 -19 -307 -27 -419 -53 -486 -116
-14 -14 -45 -54 -69 -89 l-43 -65 74 76 c83 85 91 89 254 118 177 31 334 44
492 39 128 -4 159 -8 228 -32 86 -29 143 -62 149 -86 2 -8 7 -37 11 -64 l7
-49 -29 8 c-102 26 -301 12 -409 -30 -37 -14 -30 -15 107 -9 81 3 149 2 152
-3 3 -5 -1 -232 -8 -504 -8 -271 -15 -533 -15 -581 l0 -88 -62 0 c-55 0 -60
-2 -43 -14 17 -12 10 -13 -51 -9 -38 2 -89 0 -114 -5 l-45 -10 45 -1 c61 -1
156 -27 197 -52 68 -42 80 -117 38 -240 -13 -40 -22 -75 -20 -79 4 -6 -158
-30 -205 -30 -45 0 -7 17 91 40 l102 24 -7 75 c-3 41 -6 103 -6 138 l0 64
-139 -3 -139 -3 -23 54 c-108 261 -343 168 -406 -162 -10 -50 -21 -83 -27 -81
-6 2 -153 6 -326 8 -173 2 -409 10 -525 17 l-210 14 147 5 c81 3 149 8 152 10
2 3 18 59 34 125 58 230 92 438 92 557 0 31 4 59 9 63 28 17 331 50 569 61
l142 7 -1 -49 c0 -27 -8 -78 -17 -114 l-17 -65 -85 -2 c-181 -3 -379 -100
-541 -264 -33 -34 -58 -63 -56 -65 5 -6 119 43 247 104 246 119 442 139 626
66 77 -32 162 -105 189 -163 10 -23 21 -41 25 -41 11 0 -8 79 -25 104 -8 11
-15 23 -15 27 0 3 43 9 96 12 53 3 101 10 106 15 5 5 8 38 6 73 l-3 64 -13
-59 -14 -58 -61 6 c-132 14 -164 18 -175 25 -9 6 -34 409 -25 420 3 4 115 -11
193 -25 25 -4 -163 60 -207 71 l-23 5 7 -211 6 -211 -48 31 c-26 17 -64 36
-83 42 -33 11 -34 13 -28 48 3 20 9 70 12 111 10 133 -22 182 -131 201 -62 11
-846 14 -887 4 l-23 -6 3 131 3 130 -41 0 c-23 0 -43 -5 -45 -12 -12 -35 -24
-233 -14 -243 6 -6 166 -12 454 -15 301 -4 448 -9 455 -16 13 -13 -42 -17
-410 -35 -174 -8 -246 -8 -319 2 -165 21 -487 -6 -587 -50 -26 -12 -49 -31
-59 -50 -8 -17 -14 -31 -13 -31 2 0 27 7 55 14 29 8 54 11 56 8 6 -12 -39
-641 -46 -648 -3 -3 -27 -3 -53 1 l-46 7 6 61 c11 115 16 386 6 333 -7 -38
-17 -55 -44 -78 -19 -16 -55 -61 -80 -101 -48 -78 -110 -223 -102 -241 3 -7 5
-7 5 2 1 8 20 12 60 12 81 0 88 10 72 108 l-12 77 31 28 c17 15 34 27 38 27 5
0 5 -30 1 -67 -5 -38 -8 -96 -8 -131 -1 -59 0 -63 27 -73 47 -19 156 -38 288
-53 71 -7 111 -14 89 -15 -39 -1 -434 31 -547 45 -48 6 -58 4 -58 -8 0 -30 77
-76 160 -96 128 -31 675 -88 1225 -127 226 -17 229 -17 241 -63 14 -53 -33
-67 -250 -77 -325 -15 -904 35 -1234 106 -98 21 -143 22 -149 2 -7 -21 43 -43
168 -74 91 -22 128 -36 145 -54 28 -30 84 -59 158 -80 65 -19 118 -16 199 11
45 15 58 15 195 -5 323 -46 612 -53 740 -18 l52 14 19 -43 c11 -23 28 -47 39
-53 10 -6 61 -15 111 -21 188 -23 261 20 323 190 15 41 27 67 27 58 1 -14 10
-12 60 13 78 39 579 150 615 136 8 -3 17 -19 21 -36 4 -21 15 -32 37 -40 47
-17 109 -13 131 6 12 12 36 18 69 18 42 0 54 4 69 25 28 37 44 183 29 267 -6
36 -10 66 -8 68 2 1 107 6 234 9 l232 7 -5 -23 c-4 -23 -7 -23 -131 -25 -190
-3 -312 -13 -312 -26 0 -7 4 -18 9 -26 8 -13 37 -12 212 7 182 19 222 21 208
8 -4 -4 -373 -46 -404 -46 -10 0 -15 -10 -15 -34 0 -19 3 -37 8 -40 4 -2 88
13 187 34 206 45 205 45 205 26 0 -34 106 -13 118 23 3 8 0 11 -6 7 -6 -4 -12
15 -14 51 -4 65 14 106 45 99 9 -2 17 2 17 9 0 15 -98 32 -125 21 -8 -3 -179
4 -379 16 l-364 22 -6 146 c-20 462 -54 1024 -65 1073 l-9 37 64 0 64 0 0 -47
c1 -169 20 -1176 22 -1179 6 -5 666 -45 695 -42 15 2 -109 29 -277 61 -168 32
-313 61 -322 63 -17 5 -18 41 -18 566 l0 560 38 -32 c20 -18 149 -141 287
-274 l249 -241 -303 343 -303 343 -123 -7 -124 -7 -48 31 c-26 16 -73 38 -103
46 -54 16 -232 28 -300 20z m415 -367 l90 -23 -3 -509 c-2 -329 -7 -517 -14
-530 -25 -49 -59 -64 -139 -65 l-77 0 -4 43 c-2 23 6 274 18 557 13 283 23
523 24 533 0 21 -4 21 105 -6z m-2172 -614 c6 -10 -38 -661 -44 -668 -3 -2
-35 -2 -72 2 l-67 6 1 61 c0 34 8 180 17 326 l17 265 65 6 c36 3 68 6 72 7 4
1 9 -1 11 -5z m191 -60 c-3 -38 -13 -191 -23 -340 -10 -150 -20 -275 -22 -277
-2 -3 -32 -2 -67 1 l-62 6 0 36 c0 54 30 549 36 599 l5 42 70 0 69 0 -6 -67z
m177 46 c21 -11 21 -16 16 -113 -6 -107 -21 -205 -63 -401 -35 -167 -29 -155
-75 -155 -38 0 -39 1 -39 38 0 57 30 561 36 611 l6 44 49 -6 c26 -3 58 -11 70
-18z m1108 -475 c55 -39 86 -188 79 -376 -8 -186 -65 -344 -122 -336 -25 4
-62 73 -72 136 -5 35 -4 41 8 37 10 -4 17 1 20 12 11 42 -16 59 -32 21 -6 -16
-9 16 -9 97 0 81 3 113 9 98 11 -28 26 -30 33 -4 6 24 -7 46 -22 37 -17 -11
-14 24 8 94 20 63 44 100 66 100 20 0 46 -77 61 -180 l14 -95 -5 96 c-7 136
-38 229 -77 229 -6 0 -28 -18 -49 -39 -39 -42 -82 -152 -95 -241 -9 -68 -35
-160 -45 -160 -5 0 -7 17 -4 38 2 20 7 71 10 113 10 131 68 303 112 328 27 16
86 13 112 -5z m-1929 -89 l0 -55 -35 0 c-39 0 -42 7 -19 53 38 74 54 75 54 2z
m2645 24 c66 -17 95 -48 95 -103 0 -44 -39 -169 -58 -188 -10 -10 -262 -41
-270 -34 -2 3 16 51 24 64 1 2 46 12 101 22 l98 18 -93 1 -93 1 3 47 3 48 105
16 105 17 -107 1 -107 1 -15 29 c-9 16 -28 38 -43 50 l-28 20 118 1 c65 0 138
-5 162 -11z m920 -28 c-3 -5 -2 -12 3 -15 6 -4 8 -61 3 -115 -2 -31 -19 6 -25
57 -5 40 -4 52 5 47 8 -5 9 -1 4 14 -4 13 -2 21 5 21 6 0 9 -4 5 -9z m-645
-46 c21 -43 20 -227 -3 -277 -32 -75 -59 -30 -60 102 0 83 16 160 33 160 5 0
13 -19 19 -42 l11 -43 -6 45 c-7 59 -20 72 -44 42 -17 -21 -40 -100 -40 -140
0 -9 -5 -24 -10 -32 -10 -15 -10 -13 5 110 7 57 39 113 63 108 9 -2 24 -17 32
-33z m131 18 c19 -22 19 -245 0 -288 -12 -29 -13 -29 -24 -10 -15 27 -21 181
-9 225 5 19 14 34 21 33 6 -2 11 4 11 12 0 23 -28 18 -36 -7 -3 -12 -12 -54
-19 -92 -10 -53 -13 -62 -14 -34 -1 41 17 134 31 161 11 21 22 22 39 0z m-751
-68 c0 -25 -1 -25 -80 -25 -72 0 -80 2 -80 19 0 22 20 27 108 30 49 1 52 0 52
-24z m0 -75 l0 -30 -80 0 c-71 0 -80 2 -80 19 0 15 12 20 63 28 99 16 97 17
97 -17z m0 -80 c0 -23 -5 -31 -22 -35 -82 -18 -121 -25 -125 -22 -2 3 -5 17
-6 33 -2 27 0 29 63 40 93 17 90 17 90 -16z m446 -37 c-6 -6 -333 -53 -361
-52 -18 1 78 20 259 50 59 10 70 15 85 40 l16 29 3 -31 c2 -17 1 -33 -2 -36z"/>
<path d="M3497 2716 c-3 -8 -9 -143 -13 -299 -7 -282 -7 -285 14 -296 11 -6
40 -11 64 -10 l43 0 -43 17 -42 16 2 271 c2 172 7 270 13 269 6 -1 25 -4 44
-8 30 -5 32 -4 20 10 -15 19 -63 44 -82 44 -8 0 -17 -6 -20 -14z"/>
<path d="M2824 1815 c-7 -18 2 -45 15 -45 13 0 22 27 15 45 -4 8 -10 15 -15
15 -5 0 -12 -7 -15 -15z"/>
<path d="M2823 1693 c-21 -32 -24 -135 -4 -170 14 -28 37 -30 51 -4 12 23 13
31 3 30 -24 -4 -33 5 -39 37 -7 41 8 84 31 84 18 0 19 5 5 31 -14 26 -26 24
-47 -8z"/>
<path d="M2894 1516 c-8 -20 -1 -47 11 -49 6 -1 11 13 13 31 3 32 -14 45 -24
18z"/>
<path d="M2821 1397 c-13 -17 -7 -57 10 -57 15 0 22 29 12 52 -8 18 -10 18
-22 5z"/>
<path d="M2114 3371 c-60 -35 -62 -37 -68 -86 -3 -27 -6 -79 -6 -114 0 -61 1
-63 23 -57 12 3 27 6 33 6 8 0 10 27 6 89 l-5 89 36 24 c22 14 39 34 43 51 3
16 4 30 2 31 -1 1 -31 -14 -64 -33z"/>
<path d="M2619 3206 c-13 -7 -23 -19 -23 -28 2 -25 -114 -30 -122 -5 -8 26
-74 24 -81 -3 -6 -23 -58 -36 -101 -26 -75 19 -83 19 -88 -1 -4 -15 -20 -22
-68 -31 -34 -7 -80 -19 -102 -27 l-39 -15 35 5 c19 3 80 12 135 20 55 8 154
18 220 23 156 11 586 -1 642 -18 23 -7 63 -31 90 -53 l48 -40 3 34 c6 60 -55
95 -200 114 -38 5 -47 10 -50 28 -2 18 -11 23 -41 25 -41 4 -71 -13 -63 -35 4
-10 -9 -13 -59 -13 -57 0 -64 2 -67 21 -4 28 -38 41 -69 25z"/>
<path d="M2350 3093 c-87 -5 -216 -22 -337 -44 -105 -20 -132 -31 -100 -42 6
-2 -37 -7 -98 -11 -153 -9 -212 -22 -220 -47 -4 -11 -4 -23 -1 -26 3 -4 6 1 6
9 0 9 7 19 15 22 9 3 98 8 198 11 100 3 202 11 227 16 125 28 257 39 488 39
158 0 242 -4 242 -10 0 -13 -32 -264 -34 -267 -1 -1 -708 -33 -746 -33 -19 0
-20 6 -20 97 0 53 -2 94 -5 92 -3 -4 -35 -195 -35 -214 0 -3 189 -5 419 -5
469 0 441 -4 462 73 11 40 49 241 49 258 0 5 23 24 50 42 l50 34 -167 6 c-161
7 -329 7 -443 0z"/>
<path d="M3930 3017 l0 -45 218 -167 c200 -154 211 -162 147 -95 -38 39 -136
135 -217 212 l-148 140 0 -45z"/>
<path d="M2901 2986 c-22 -66 -61 -248 -61 -281 0 -28 5 -37 24 -45 31 -12
238 -52 243 -47 2 2 -43 21 -99 42 -57 20 -106 40 -110 44 -6 5 28 249 36 258
1 1 137 -24 174 -32 20 -5 22 -11 22 -67 0 -78 6 -72 13 14 l6 67 -119 39
-119 39 -10 -31z"/>
<path d="M3201 2951 c-45 -45 -76 -335 -41 -391 8 -14 14 -37 12 -52 -3 -27
-6 -28 -60 -29 -54 -1 -55 -2 -24 -11 20 -7 44 -8 65 -2 26 8 33 15 35 41 3
28 6 31 51 37 27 4 53 12 59 19 9 10 32 253 32 336 0 18 -9 40 -20 51 -26 26
-83 27 -109 1z"/>
<path d="M3922 2624 l3 -67 230 -79 c127 -43 226 -75 220 -70 -5 5 -51 34
-100 64 -50 31 -150 92 -223 137 l-133 81 3 -66z"/>
<path d="M3916 2353 c3 -21 9 -41 13 -44 5 -5 340 -67 454 -84 24 -4 -314 116
-456 161 -16 5 -17 1 -11 -33z"/>
<path d="M4592 2161 l-2 -124 -72 6 -73 5 73 -15 c40 -9 75 -13 78 -11 2 3 3
63 1 134 l-3 129 -2 -124z"/>
<path d="M2100 1916 c-74 -19 -170 -95 -170 -133 0 -6 8 -14 18 -17 38 -12
301 -36 398 -36 l101 0 50 53 c58 61 88 113 73 122 -37 23 -395 32 -470 11z
m244 -63 c3 -21 6 -50 6 -65 0 -27 -2 -28 -52 -28 -90 0 -292 20 -301 29 -10
10 87 68 147 87 22 7 75 13 117 13 l76 1 7 -37z"/>
<path d="M4560 1915 c-8 -9 -8 -15 -2 -15 12 0 26 19 19 26 -2 2 -10 -2 -17
-11z"/>
<path d="M4572 1855 c0 -16 2 -22 5 -12 2 9 2 23 0 30 -3 6 -5 -1 -5 -18z"/>
<path d="M856 1661 c-1 -3 -1 -27 2 -53 l4 -48 55 0 54 0 -3 42 c-3 41 -3 42
-56 53 -29 7 -54 9 -56 6z"/>
<path d="M4585 1633 c-260 -58 -700 -175 -870 -230 -191 -61 -416 -164 -970
-441 l-590 -295 35 -12 c19 -7 77 -33 129 -59 52 -25 100 -46 106 -46 7 0 45
22 86 49 260 173 580 365 957 575 266 148 373 198 574 269 155 55 520 172 593
190 16 4 15 5 -5 5 -14 0 -34 -2 -45 -5z"/>
<path d="M607 1589 c-82 -21 -239 -57 -349 -81 -169 -36 -197 -44 -182 -55 40
-29 81 -26 266 21 198 49 405 112 426 128 6 6 12 14 12 19 0 13 -8 11 -173
-32z"/>
<path d="M540 1495 c-102 -30 -220 -64 -262 -76 -70 -20 -94 -39 -50 -39 9 0
49 -8 89 -18 l72 -18 88 31 c171 62 264 106 274 132 13 35 11 43 -8 43 -10 -1
-101 -25 -203 -55z"/>
<path d="M1944 1523 c13 -53 39 -78 82 -78 37 0 39 1 47 43 5 24 7 45 5 47 -2
1 -34 6 -72 10 l-69 7 7 -29z"/>
<path d="M3675 1257 c-168 -87 -348 -200 -550 -348 -218 -158 -507 -391 -498
-400 4 -4 35 -18 68 -32 l60 -24 130 126 c310 299 699 612 900 723 102 57 25
25 -110 -45z"/>
</g>
</svg>
