<?xml version="1.0" standalone="no"?>
<!DOCTYPE svg PUBLIC "-//W3C//DTD SVG 20010904//EN"
 "http://www.w3.org/TR/2001/REC-SVG-20010904/DTD/svg10.dtd">
<svg version="1.0" xmlns="http://www.w3.org/2000/svg"
 width="980.000000pt" height="630.000000pt" viewBox="0 0 980.000000 630.000000"
 preserveAspectRatio="xMidYMid meet">

<g transform="translate(0.000000,630.000000) scale(0.100000,-0.100000)"
fill="#000000" stroke="none">
<path d="M0 3150 l0 -3150 4900 0 4900 0 0 3150 0 3150 -4900 0 -4900 0 0
-3150z m7015 1964 c66 -8 147 -21 180 -29 33 -8 105 -24 160 -35 55 -12 104
-26 109 -31 6 -5 20 -9 33 -9 13 0 23 -4 23 -9 0 -5 9 -7 20 -4 11 3 20 0 20
-6 0 -6 8 -11 18 -11 9 0 32 -9 51 -21 18 -11 40 -18 48 -15 8 4 11 1 8 -5 -4
-6 -1 -9 6 -8 13 3 94 -30 129 -52 8 -5 31 -17 50 -27 19 -9 37 -20 40 -23 10
-12 69 -39 87 -39 14 0 15 -2 4 -9 -10 -7 -5 -11 18 -16 17 -3 31 -10 31 -14
0 -4 27 -25 60 -46 33 -21 60 -43 60 -48 0 -4 -5 -5 -12 -1 -7 4 -8 3 -4 -4 4
-6 13 -9 21 -6 8 3 21 0 29 -8 7 -7 23 -20 35 -28 11 -8 21 -20 21 -28 0 -7 4
-11 8 -8 10 6 43 -30 35 -37 -2 -3 4 -8 14 -11 18 -6 63 -67 63 -86 0 -6 4 -9
9 -6 6 4 28 -28 36 -54 8 -26 26 -59 35 -65 5 -3 8 -11 5 -16 -4 -5 -1 -9 4
-9 6 0 11 -7 11 -15 0 -9 7 -26 14 -38 8 -12 20 -52 25 -88 6 -37 18 -85 26
-108 8 -25 10 -41 4 -41 -6 0 -7 -9 -3 -22 9 -27 7 -190 -2 -232 -5 -21 -8
-25 -15 -15 -6 10 -9 5 -10 -16 -3 -70 -9 -105 -22 -132 -8 -15 -20 -55 -27
-87 -7 -33 -20 -78 -30 -100 -9 -23 -20 -58 -24 -80 -4 -21 -11 -46 -15 -55
-19 -37 -28 -80 -24 -112 2 -18 1 -41 -3 -49 -3 -8 -7 -31 -9 -50 -1 -19 -8
-48 -14 -65 -7 -16 -13 -32 -13 -35 0 -3 -9 -17 -19 -32 -10 -14 -19 -29 -19
-32 0 -4 -9 -17 -21 -29 -28 -29 -39 -60 -33 -91 4 -23 0 -27 -25 -32 -18 -4
-31 -14 -34 -26 -4 -15 -2 -18 10 -14 11 4 13 2 10 -9 -4 -8 1 -18 9 -23 14
-8 14 -12 3 -30 -11 -17 -11 -24 -2 -33 10 -10 7 -15 -10 -23 -12 -7 -23 -20
-25 -30 -2 -10 0 -16 5 -13 5 3 10 -8 10 -26 1 -18 5 -55 10 -84 7 -41 6 -53
-4 -57 -7 -3 -13 -15 -13 -26 0 -11 -6 -20 -14 -20 -10 0 -14 -16 -14 -66 0
-52 3 -64 14 -60 11 4 10 -1 -3 -19 -10 -13 -28 -25 -40 -25 -12 0 -29 -7 -37
-16 -9 -8 -16 -13 -16 -9 0 3 -6 3 -12 -2 -7 -4 -23 -6 -35 -4 -13 1 -23 -1
-23 -6 0 -4 -18 -8 -40 -7 -28 0 -40 -4 -40 -13 0 -9 -5 -11 -12 -7 -8 5 -7 0
2 -11 8 -10 10 -16 3 -12 -6 4 -20 -4 -32 -19 -12 -15 -21 -21 -21 -14 0 9 -4
9 -12 3 -7 -6 -31 -13 -53 -17 -22 -4 -48 -9 -57 -12 -12 -4 -18 0 -19 13 -1
10 -4 5 -8 -12 l-6 -30 -110 -12 c-61 -6 -136 -12 -167 -12 -52 -1 -58 1 -58
19 0 11 -4 20 -10 20 -5 0 -10 -4 -10 -10 0 -5 -25 -10 -55 -10 l-55 0 -2 78
c-2 42 -3 172 -3 289 l0 212 280 -6 280 -6 52 26 c28 15 53 32 56 39 3 7 6 4
6 -8 1 -24 -20 -44 -69 -67 -29 -13 -80 -16 -298 -17 -261 -1 -342 -8 -252
-22 25 -3 82 -7 128 -7 55 -1 81 -5 77 -11 -4 -6 -14 -10 -23 -9 -35 3 -156
-4 -134 -8 12 -2 20 -9 17 -14 -4 -5 1 -9 9 -9 9 0 16 -5 16 -11 0 -6 8 -8 18
-5 9 3 33 1 52 -3 l35 -9 -45 -3 c-71 -4 123 -16 305 -19 l160 -3 -207 -8
c-114 -4 -215 -12 -225 -18 -14 -8 -15 -11 -3 -12 8 -1 20 -2 25 -4 6 -1 26
-3 45 -5 l35 -2 -27 -11 c-16 -6 -28 -14 -28 -18 0 -9 38 -19 80 -20 l35 -1
-40 -12 c-39 -12 -39 -12 -17 -25 16 -8 48 -10 105 -6 96 7 178 42 195 84 l10
26 1 -32 c1 -17 -6 -39 -15 -48 -34 -33 -110 -63 -181 -70 -86 -8 -88 -26 -3
-22 33 1 60 -1 60 -5 0 -5 -15 -8 -32 -9 -32 0 -33 0 -8 -11 23 -9 24 -11 6
-17 -32 -12 1 -19 79 -17 47 1 83 8 110 21 36 18 40 24 41 57 0 39 23 73 55
83 26 9 24 23 -3 21 -22 -1 -23 1 -20 82 2 67 0 82 -10 76 -10 -6 -11 -5 -1 7
7 9 12 33 11 55 0 21 13 85 29 141 17 56 28 105 25 108 -3 3 -18 5 -33 5 -36
0 -45 16 -20 32 14 9 19 19 15 34 -4 16 0 25 13 32 18 10 18 17 7 134 -12 119
-24 209 -60 428 l-17 105 -341 83 c-188 45 -462 110 -611 143 -209 46 -274 64
-290 80 l-20 21 40 -7 c128 -21 693 -153 970 -225 127 -33 233 -60 238 -60 14
0 -5 55 -50 146 l-45 91 -55 17 c-30 10 -57 15 -60 12 -3 -3 21 -18 53 -33 48
-23 60 -33 62 -55 3 -24 0 -27 -27 -26 -17 1 -28 5 -25 10 3 4 -11 18 -31 29
-23 14 -32 25 -25 29 22 13 -134 79 -246 104 -107 24 -154 28 -78 7 22 -6 46
-15 54 -21 13 -8 12 -10 -2 -10 -27 0 -22 -17 7 -24 16 -4 22 -11 19 -21 -4
-8 -10 -15 -16 -15 -5 0 -6 5 -3 10 4 7 -3 9 -19 6 -14 -3 -26 -1 -26 3 0 4
-15 5 -34 3 -32 -4 -35 -1 -69 60 -20 35 -46 69 -59 75 -29 15 -167 48 -274
67 -107 19 -357 41 -378 33 -29 -12 -17 -27 23 -27 49 0 101 -10 101 -20 0 -4
-19 -4 -42 1 -24 4 -69 11 -100 14 -32 4 -67 14 -78 23 -23 19 -50 112 -51
175 0 75 -44 292 -57 289 -7 -1 -12 2 -12 8 0 6 5 10 11 10 7 0 10 17 7 45 -2
25 -2 45 0 45 2 0 36 -15 75 -34 40 -18 90 -37 112 -41 64 -11 74 -20 71 -62
-2 -21 -9 -39 -15 -41 -14 -5 -14 -72 -1 -106 20 -55 83 -25 121 57 27 60 25
81 -6 75 -21 -5 -23 -3 -14 14 6 12 17 17 26 14 8 -3 85 -27 171 -52 206 -60
365 -114 542 -186 192 -79 214 -84 259 -68 54 18 83 39 74 53 -4 7 -8 19 -8
27 0 42 -582 281 -921 379 -266 77 -299 80 -463 45 -36 -7 -68 -11 -72 -8 -4
2 -9 -21 -11 -51 -1 -30 0 -55 3 -55 10 0 28 -174 34 -320 7 -156 -12 -143
-25 18 -12 141 -27 242 -42 270 -12 23 -23 25 -108 22 -60 -2 -130 -28 -130
-49 0 -9 7 -146 15 -306 8 -159 15 -303 15 -318 l0 -28 -45 32 c-77 55 -85 66
-85 111 0 57 -17 38 -29 -32 l-9 -55 -1 82 c0 45 3 85 9 88 6 3 10 -1 10 -10
0 -9 4 -13 10 -10 11 7 9 285 -2 285 -5 0 -8 -9 -8 -19 0 -11 -6 -21 -12 -23
-9 -3 -12 -27 -10 -76 1 -42 -2 -72 -8 -72 -6 0 -10 34 -10 80 0 50 -4 80 -11
80 -5 0 -7 4 -4 10 3 6 -1 7 -10 4 -28 -11 -42 -57 -49 -154 -9 -143 -11 -408
-4 -416 4 -3 13 5 19 19 8 17 30 33 65 48 30 12 54 28 54 35 0 9 12 14 33 14
29 0 44 -11 105 -75 40 -42 72 -81 72 -88 0 -7 10 -17 22 -22 12 -6 23 -16 24
-23 1 -7 0 -8 -3 -2 -6 13 -23 13 -23 1 0 -6 10 -22 23 -36 16 -19 40 -30 82
-39 57 -11 60 -13 58 -41 -1 -15 -7 -33 -12 -38 -13 -13 -31 0 -31 23 0 29
-30 52 -61 48 -15 -3 -26 -1 -23 3 7 12 -19 17 -44 8 -13 -5 -21 -5 -18 0 3 4
-14 1 -39 -8 -27 -9 -46 -23 -49 -36 -5 -15 -8 -17 -15 -7 -6 11 -11 10 -25
-3 -16 -16 -16 -19 1 -37 16 -18 18 -18 23 -2 5 12 9 14 14 6 4 -7 4 -16 1
-22 -3 -6 4 -10 17 -10 18 0 20 -2 8 -10 -12 -8 -11 -10 6 -10 11 0 28 -8 37
-18 16 -17 15 -20 -7 -39 -29 -25 -62 -37 -97 -35 -16 1 -29 -4 -33 -13 -3 -8
-15 -15 -27 -15 -12 0 -19 -5 -16 -12 2 -7 9 -13 15 -13 18 0 21 -9 6 -23 -12
-11 -14 -10 -14 3 0 9 -9 15 -22 15 -21 -1 -21 -2 -5 -11 25 -15 11 -32 -15
-18 -18 10 -20 9 -14 -6 5 -14 2 -16 -16 -11 -54 14 -128 19 -128 7 0 -6 11
-16 25 -21 29 -11 33 -30 7 -30 -10 0 -23 -5 -30 -12 -9 -9 -12 -9 -12 0 0 7
6 12 13 13 10 0 10 2 0 6 -8 2 -13 22 -13 44 0 21 -4 39 -8 39 -5 0 -7 -27 -5
-60 l4 -60 -64 0 c-35 0 -86 -7 -113 -15 -27 -8 -62 -15 -78 -15 -16 0 -27 -2
-24 -5 6 -6 160 -35 345 -65 70 -11 190 -36 267 -54 78 -19 180 -42 229 -51
48 -10 87 -21 87 -25 0 -4 -10 -16 -23 -28 -21 -20 -24 -20 -52 -6 -47 25
-382 98 -364 80 2 -2 7 -4 10 -3 3 1 13 -4 21 -11 9 -7 33 -22 54 -33 l39 -20
-55 5 c-30 3 -71 7 -90 11 -26 4 -30 3 -15 -4 16 -8 13 -10 -20 -10 -31 0 -36
2 -20 9 14 6 -3 9 -52 9 -50 1 -73 5 -73 13 0 6 -6 3 -14 -7 -12 -17 -17 -18
-57 -6 -24 7 -48 14 -54 16 -5 1 14 7 43 14 29 7 59 10 67 7 9 -3 15 1 15 10
0 19 -29 15 -156 -22 -99 -28 -112 -29 -141 -9 -16 11 -28 13 -48 5 -14 -5
-28 -10 -31 -10 -2 0 -4 34 -4 75 0 64 -3 76 -20 85 -11 6 -18 15 -15 20 3 4
-1 11 -7 14 -7 3 2 3 20 0 18 -2 32 0 32 6 0 5 -6 10 -14 10 -21 0 -31 21 -15
31 8 5 10 9 4 9 -6 0 -9 35 -7 91 2 63 0 89 -7 84 -8 -4 -9 20 -5 81 5 68 4
85 -6 79 -13 -8 -12 7 15 230 8 61 17 145 21 188 4 46 11 77 18 77 6 0 4 5 -4
10 -11 7 0 16 47 37 34 15 62 33 63 40 0 6 62 53 138 104 161 108 147 98 140
105 -5 4 -151 -89 -255 -163 -22 -15 -23 -14 -24 13 -2 27 -2 26 -8 -6 -5 -29
-14 -39 -50 -57 -25 -13 -46 -21 -48 -19 -2 2 1 16 7 32 12 31 24 124 15 124
-2 0 -12 -16 -20 -37 -8 -20 -18 -34 -21 -31 -5 5 10 98 34 216 5 23 6 42 2
42 -10 0 -27 -84 -49 -240 -18 -124 -18 -136 -3 -147 14 -12 14 -13 -1 -13 -9
0 -17 -8 -17 -17 0 -10 -4 -56 -10 -103 -22 -200 -60 -668 -60 -752 0 -36 4
-48 15 -48 8 0 15 -4 15 -10 0 -5 -7 -10 -15 -10 -19 0 -23 -20 -30 -178 -6
-118 -5 -133 10 -139 16 -5 16 -7 1 -15 -9 -5 -16 -20 -16 -33 0 -13 -5 -25
-11 -27 -6 -2 -5 -14 5 -33 26 -49 21 -67 -16 -65 -74 4 -96 0 -101 -19 -4
-15 -18 -20 -78 -26 -41 -4 -200 -20 -354 -36 -154 -16 -288 -29 -298 -29 -10
0 -16 -4 -12 -10 3 -5 12 -7 20 -3 10 3 15 -1 16 -13 2 -25 2 -26 -7 -48 -6
-15 -4 -17 14 -12 22 7 22 1 14 -157 -4 -56 -22 -14 -23 51 -1 37 -3 59 -6 50
-2 -10 -14 -19 -26 -19 -17 -1 -18 -2 -4 -6 20 -5 25 -63 5 -63 -8 0 -4 -8 7
-16 14 -11 16 -18 8 -21 -22 -8 -14 -24 10 -21 17 2 23 -3 25 -21 2 -13 -1
-28 -7 -34 -8 -8 -11 -6 -11 6 0 9 -4 17 -10 17 -5 0 -10 -7 -10 -15 0 -12
-15 -15 -71 -15 -57 0 -70 3 -66 14 7 17 -4 22 -66 31 l-45 7 5 121 c3 67 10
128 15 135 8 9 4 12 -16 12 -16 0 -26 -5 -26 -15 0 -11 -11 -15 -42 -15 -78 0
-118 -11 -118 -31 0 -11 -5 -19 -11 -19 -6 0 -9 7 -5 15 3 9 0 15 -9 15 -7 0
-20 7 -28 15 -13 13 -19 13 -49 0 -24 -10 -27 -14 -13 -15 18 0 55 -31 55 -45
0 -2 -15 -8 -32 -13 -18 -4 -34 -16 -36 -25 -3 -13 4 -17 32 -17 29 0 36 -4
36 -20 0 -21 -43 -45 -61 -34 -5 3 -9 -5 -9 -18 0 -17 10 -27 40 -40 44 -18
45 -18 54 36 7 39 20 41 22 3 1 -12 4 -29 7 -37 3 -8 8 -28 12 -44 7 -35 11
-32 19 15 7 48 16 69 28 69 6 0 8 -7 5 -15 -4 -8 -2 -17 3 -20 6 -4 10 -18 10
-33 0 -26 16 -62 22 -52 19 30 26 51 21 69 -4 15 -1 21 11 21 10 0 15 -4 11
-9 -3 -5 0 -13 6 -17 6 -4 9 -19 5 -36 -4 -20 -1 -35 9 -45 8 -8 15 -10 15 -4
0 6 11 11 25 11 14 0 24 -5 22 -12 -2 -14 55 -37 95 -37 26 -1 176 -51 210
-71 10 -5 27 -10 38 -10 11 0 23 -7 26 -15 4 -9 19 -15 38 -15 53 0 72 -10 84
-44 13 -35 73 -289 69 -292 -3 -2 -767 -34 -1077 -44 -317 -11 -997 -35 -1453
-53 -165 -7 -300 -10 -302 -7 -2 3 -15 88 -30 190 -72 502 -91 634 -156 1050
-11 69 -21 139 -24 155 -2 17 -43 268 -90 559 -47 292 -82 533 -78 537 5 5
157 -19 338 -52 182 -33 404 -74 495 -90 91 -17 268 -48 395 -69 126 -22 335
-60 465 -85 275 -52 529 -95 559 -95 12 0 19 4 16 10 -3 6 10 25 29 44 20 18
33 36 29 40 -3 3 7 6 23 7 87 2 34 13 -2011 420 -220 43 -422 79 -448 79 -40
0 -54 -5 -78 -29 -19 -19 -29 -40 -29 -59 0 -26 60 -419 165 -1082 13 -85 74
-477 135 -870 62 -399 118 -732 127 -753 9 -21 34 -54 56 -73 33 -31 44 -35
75 -30 82 12 395 28 439 23 27 -3 208 5 403 18 500 34 1224 83 1427 96 94 6
180 9 190 7 10 -2 -38 -8 -107 -12 -69 -4 -179 -11 -245 -16 -187 -15 -243
-19 -500 -35 -245 -15 -279 -17 -515 -34 -74 -6 -215 -16 -312 -22 -98 -6
-178 -14 -178 -17 0 -3 7 -10 17 -17 12 -9 -2 -9 -63 1 -60 9 -115 10 -234 2
-85 -6 -159 -15 -165 -19 -5 -5 2 -9 17 -9 14 0 137 -16 274 -36 437 -62 455
-64 599 -53 72 5 146 13 165 16 31 6 26 8 -45 19 -63 10 -68 12 -25 9 30 -1
102 -8 160 -15 99 -11 145 -9 825 49 396 33 747 63 780 66 33 3 87 7 120 10
33 2 114 9 180 15 66 5 210 17 320 25 266 20 309 25 299 35 -5 4 -52 10 -104
14 -52 3 -228 15 -390 27 -162 12 -353 22 -425 22 -96 0 -118 2 -85 8 25 4 66
8 92 8 46 1 47 2 59 40 10 34 8 56 -16 159 -37 167 -26 187 14 25 31 -128 37
-171 30 -203 -2 -8 2 -14 9 -12 7 1 43 -4 80 -13 83 -18 1029 -81 1041 -70 2
3 -12 5 -32 5 -21 0 -37 5 -37 11 0 8 13 10 38 6 20 -3 101 -9 180 -13 120 -6
142 -9 143 -23 0 -12 3 -11 9 4 5 11 9 54 10 95 2 64 3 70 10 40 5 -19 9 -168
9 -330 0 -329 1 -330 72 -356 18 -7 28 -13 21 -13 -8 -1 -29 6 -47 15 -51 24
-65 64 -65 187 0 57 -3 124 -6 149 l-6 45 -52 -9 c-68 -13 -74 -22 -8 -15 42
5 52 3 52 -9 0 -18 -4 -19 -115 -33 -187 -23 -563 -71 -630 -81 -38 -5 -374
-48 -746 -95 -628 -79 -816 -97 -764 -75 l20 9 -20 1 c-19 1 -19 1 -2 14 16
12 15 14 -13 26 -36 15 -119 8 -131 -11 -5 -8 -6 -22 -3 -32 4 -13 -6 -22 -43
-38 -52 -22 -66 -22 -193 6 -41 9 -131 25 -200 36 -69 11 -161 26 -205 33
-107 17 -886 147 -1200 200 l-250 42 -3 34 c-2 22 -17 49 -40 76 -78 86 -90
105 -96 142 -17 109 -331 2141 -372 2407 -44 285 -44 287 4 330 20 19 53 38
72 42 26 5 231 -33 775 -141 936 -188 1667 -332 1724 -340 39 -6 43 -5 31 9
-10 12 -10 15 4 15 9 0 16 3 16 8 0 4 40 50 89 101 50 52 88 98 85 103 -3 4 1
8 9 8 8 0 32 19 52 43 85 96 260 277 267 277 5 0 25 15 44 33 20 17 43 36 52
41 10 5 21 15 25 23 4 7 13 13 19 13 6 0 30 16 54 35 23 19 47 35 53 35 5 0
16 8 23 18 16 22 73 46 87 37 6 -3 9 0 6 7 -3 7 11 24 32 38 21 14 40 27 43
30 3 3 21 14 40 24 19 11 37 22 40 25 11 13 231 123 305 154 88 36 122 47 200
67 94 25 132 37 147 47 7 4 22 9 33 10 20 2 43 6 100 19 17 4 39 13 50 20 23
14 132 32 285 45 172 15 206 17 425 24 115 4 212 9 215 12 6 6 146 -5 295 -23z
m-622 -494 c3 -11 1 -18 -4 -14 -5 3 -9 12 -9 20 0 20 7 17 13 -6z m592 0 c11
-19 -38 -31 -113 -28 -76 3 -77 3 -49 19 31 17 153 24 162 9z m-785 -105 c0
-8 -8 -15 -17 -15 -10 -1 -29 -8 -43 -16 -17 -10 -18 -13 -5 -9 43 15 58 15
27 1 -37 -17 -62 -12 -62 14 0 11 12 21 33 28 47 15 67 14 67 -3z m207 -52
c-3 -10 -5 -4 -5 12 0 17 2 24 5 18 2 -7 2 -21 0 -30z m-96 -65 c-9 -32 -9
-31 -10 17 0 38 2 46 10 33 6 -11 6 -29 0 -50z m6 -90 c-3 -8 -6 -5 -6 6 -1
11 2 17 5 13 3 -3 4 -12 1 -19z m10 -95 c-3 -10 -5 -2 -5 17 0 19 2 27 5 18 2
-10 2 -26 0 -35z m10 -65 c-3 -8 -6 -5 -6 6 -1 11 2 17 5 13 3 -3 4 -12 1 -19z
m66 -65 c3 -24 2 -43 -3 -43 -12 0 -20 27 -20 68 0 47 16 30 23 -25z m90 -60
c-7 -2 -21 -2 -30 0 -10 3 -4 5 12 5 17 0 24 -2 18 -5z m50 -10 c-7 -2 -19 -2
-25 0 -7 3 -2 5 12 5 14 0 19 -2 13 -5z m543 -15 c4 -6 -2 -7 -17 -3 -35 10
-45 23 -15 18 15 -3 29 -10 32 -15z m-739 -40 c-3 -7 -5 -2 -5 12 0 14 2 19 5
13 2 -7 2 -19 0 -25z m571 21 c69 -16 204 -60 199 -65 -2 -3 -17 0 -33 7 -16
6 -76 24 -134 39 -103 28 -124 41 -32 19z m320 -30 c22 -9 46 -52 39 -72 -4
-12 -41 22 -50 44 -5 12 -7 11 -16 -1 -9 -13 -11 -13 -11 2 0 10 -12 24 -27
33 l-28 16 35 -7 c19 -4 45 -10 58 -15z m-989 -32 c37 -18 47 -29 56 -64 12
-40 5 -83 -8 -49 -4 9 -24 18 -47 22 -25 4 -57 20 -78 38 -32 27 -36 34 -27
54 13 28 46 28 104 -1z m98 -39 c-3 -7 -5 -2 -5 12 0 14 2 19 5 13 2 -7 2 -19
0 -25z m620 10 c2 -18 0 -20 -7 -8 -12 18 -13 30 -2 30 4 0 9 -10 9 -22z m228
12 c3 -6 -4 -10 -17 -10 -18 0 -20 2 -8 10 19 12 18 12 25 0z m-185 -15 c0 -8
-8 -15 -17 -14 -13 0 -14 2 -4 6 11 5 11 7 0 14 -11 7 -10 9 4 9 9 0 17 -7 17
-15z m216 -35 c13 0 24 -4 24 -8 0 -11 -59 -6 -90 8 -23 10 -23 10 9 5 18 -3
44 -5 57 -5z m401 -22 c86 -32 87 -33 48 -36 -22 -2 -44 -9 -48 -15 -6 -8 -7
-6 -4 5 4 12 -6 22 -38 37 -38 18 -67 41 -51 41 3 0 45 -15 93 -32z m-80 -10
c18 -7 33 -16 33 -20 0 -11 -7 -10 -31 2 -12 7 -19 7 -19 1 0 -6 -7 -8 -15 -5
-15 6 -22 34 -8 34 4 0 22 -5 40 -12z m63 -28 c0 -5 -4 -10 -10 -10 -5 0 -10
5 -10 10 0 6 5 10 10 10 6 0 10 -4 10 -10z m-662 -63 c54 -58 44 -132 -18
-132 -28 0 -39 6 -57 34 -27 40 -29 77 -6 103 22 25 55 23 81 -5z m847 -45
c-3 -3 -11 0 -18 7 -9 10 -8 11 6 5 10 -3 15 -9 12 -12z m-648 -172 c512 -96
767 -151 787 -171 17 -16 18 -19 4 -24 -8 -3 -143 19 -299 49 -156 30 -389 74
-517 96 -128 23 -239 43 -245 45 -67 24 -69 25 -57 40 7 8 23 15 36 15 13 0
144 -23 291 -50z m-740 -22 c-3 -8 -6 -5 -6 6 -1 11 2 17 5 13 3 -3 4 -12 1
-19z m-512 -289 c17 -8 16 -9 -7 -6 -16 3 -28 1 -28 -3 0 -12 -43 -6 -48 8 -4
14 52 16 83 1z m-60 -39 c3 -5 2 -10 -4 -10 -5 0 -13 5 -16 10 -3 6 -2 10 4
10 5 0 13 -4 16 -10z m-463 -35 c9 -4 12 -19 10 -50 -5 -56 -19 -60 -17 -5 1
28 -4 44 -14 50 -17 10 -2 13 21 5z m-5 -157 c-2 -13 -4 -5 -4 17 -1 22 1 32
4 23 2 -10 2 -28 0 -40z m173 -8 c-8 -5 -19 -10 -25 -10 -5 0 -3 5 5 10 8 5
20 10 25 10 6 0 3 -5 -5 -10z m241 -47 l2 -28 4 29 5 28 91 -6 c109 -8 281
-38 252 -44 -11 -2 -22 -7 -25 -11 -7 -11 -119 -49 -160 -55 -52 -8 -142 16
-151 40 -7 16 -8 17 -8 2 -1 -14 -10 -18 -46 -18 -44 0 -103 -22 -116 -42 -13
-20 -149 56 -149 83 0 9 36 17 164 34 138 19 136 19 137 -12z m386 11 c-3 -3
-12 -4 -19 -1 -8 3 -5 6 6 6 11 1 17 -2 13 -5z m443 -36 l105 -21 73 -71 c39
-39 76 -71 81 -71 5 0 13 -3 17 -7 13 -13 24 -9 25 10 0 14 2 14 9 -3 10 -24
40 -51 67 -59 17 -5 19 -2 15 24 l-4 30 83 -2 84 -2 -72 -3 c-72 -4 -84 -11
-65 -39 4 -6 24 -15 45 -20 26 -6 -57 -9 -246 -9 -188 0 -283 3 -279 10 14 21
32 81 32 108 0 25 3 27 48 28 46 1 45 1 -33 20 -44 10 -95 19 -112 19 -23 0
-33 5 -33 15 0 8 -4 15 -8 15 -5 0 -7 13 -4 30 5 33 -8 33 172 -2z m-275 7
l50 -14 -50 6 c-27 3 -61 9 -75 14 l-25 7 25 0 c14 0 48 -6 75 -13z m-449
-104 c28 -12 67 -39 85 -59 l34 -36 -42 36 c-49 43 -124 68 -202 67 -51 0
-119 -16 -81 -18 13 -1 13 -3 0 -10 -8 -6 -17 -8 -20 -6 -4 2 -19 -19 -34 -48
-43 -83 -56 -103 -56 -89 0 26 58 138 86 166 28 27 32 28 104 24 47 -3 94 -13
126 -27z m74 19 c0 -5 -4 -10 -10 -10 -5 0 -10 5 -10 10 0 6 5 10 10 10 6 0
10 -4 10 -10z m-457 -62 c10 -15 15 -33 11 -39 -4 -8 -3 -9 4 -5 7 4 12 2 12
-3 0 -6 -8 -11 -18 -11 -26 0 -34 -11 -21 -27 9 -10 8 -13 -5 -13 -13 0 -16
12 -15 78 0 42 3 70 7 62 4 -8 15 -27 25 -42z m-56 -55 c-2 -21 -4 -6 -4 32 0
39 2 55 4 38 2 -18 2 -50 0 -70z m1861 10 c-27 -2 -69 -2 -95 0 -27 2 -5 3 47
3 52 0 74 -1 48 -3z m195 -10 c-13 -2 -35 -2 -50 0 -16 2 -5 4 22 4 28 0 40
-2 28 -4z m160 -10 c-13 -2 -33 -2 -45 0 -13 2 -3 4 22 4 25 0 35 -2 23 -4z
m-873 -73 l-105 -6 108 -2 c66 -1 107 2 107 8 0 11 70 13 118 4 l30 -6 -15
-42 c-8 -22 -16 -48 -17 -56 -2 -11 -21 -16 -72 -20 -49 -3 -20 -6 101 -10
l170 -5 3 -67 3 -68 -421 0 -420 0 0 -192 c0 -105 -2 -189 -4 -187 -2 2 -6
142 -10 310 -6 270 -5 308 9 319 13 11 14 10 9 -6 -7 -18 -7 -18 13 -1 31 27
98 35 308 34 159 -1 173 -2 85 -7z m-1300 -26 c0 -2 -7 -4 -15 -4 -8 0 -15 4
-15 10 0 5 7 7 15 4 8 -4 15 -8 15 -10z m-14 -28 c15 -4 24 -9 21 -13 -3 -3
-19 2 -35 10 -18 9 -35 11 -43 6 -8 -5 -24 -9 -36 -9 -13 0 -23 -4 -23 -10 0
-5 -27 -12 -60 -16 -33 -4 -60 -10 -60 -13 0 -4 37 -3 81 3 80 9 82 9 100 -15
l18 -24 -37 -8 c-71 -15 -478 -5 -495 12 -5 5 56 13 145 18 l153 10 -165 -2
c-91 -1 -174 -5 -185 -9 -19 -7 -19 -7 -2 7 18 15 63 20 305 37 107 8 258 33
271 45 3 3 8 -1 13 -9 4 -7 20 -17 34 -20z m-36 -32 c0 -8 -5 -12 -10 -9 -6 4
-8 11 -5 16 9 14 15 11 15 -7z m-670 -4 c11 -7 11 -10 2 -10 -7 0 -10 -5 -7
-10 4 -6 11 -8 16 -5 5 4 9 1 9 -4 0 -13 -10 -14 -29 -2 -7 5 -11 13 -7 19 3
6 0 13 -6 15 -7 3 -8 6 -3 6 6 0 17 -4 25 -9z m3437 -32 c-3 -8 -6 -5 -6 6 -1
11 2 17 5 13 3 -3 4 -12 1 -19z m-4057 -43 c0 -8 -4 -15 -10 -15 -5 0 -7 7 -4
15 4 8 8 15 10 15 2 0 4 -7 4 -15z m746 -11 c-6 -6 -14 -10 -18 -8 -4 2 -8 -8
-10 -23 -4 -36 -21 -32 -29 6 -8 37 -5 41 36 39 26 -1 30 -4 21 -14z m-299
-26 c-3 -7 -5 -2 -5 12 0 14 2 19 5 13 2 -7 2 -19 0 -25z m353 22 c0 -5 -2
-10 -4 -10 -3 0 -8 5 -11 10 -3 6 -1 10 4 10 6 0 11 -4 11 -10z m185 1 l-20
-9 20 -4 c11 -3 0 -3 -25 -1 -42 4 -44 4 -25 -11 19 -15 19 -15 -13 -16 -18 0
-31 3 -29 8 3 4 -13 7 -36 7 -32 0 -42 4 -45 18 -3 15 6 17 95 16 60 0 90 -4
78 -8z m-985 -30 c0 -6 -4 -13 -10 -16 -5 -3 -10 1 -10 9 0 9 5 16 10 16 6 0
10 -4 10 -9z m1767 -10 c36 -23 76 -87 93 -150 16 -62 15 -198 -3 -251 -14
-40 -15 -42 -16 -16 -1 29 -2 29 -16 10 -12 -16 -16 -17 -24 -4 -9 12 -11 12
-17 -3 -3 -9 -10 -17 -15 -17 -4 0 -1 16 7 35 7 19 13 56 13 82 -1 26 -4 37
-6 23 -10 -62 -73 -170 -99 -170 -23 0 -16 -16 18 -45 20 -17 40 -25 54 -22
13 2 21 0 18 -4 -3 -5 -21 -9 -41 -9 -45 0 -94 48 -138 135 -27 53 -30 70 -30
149 0 63 4 91 13 94 6 2 10 8 7 13 -12 18 29 75 55 77 3 0 29 9 58 20 55 21
87 20 78 -3 -5 -15 12 -35 31 -35 21 0 15 17 -22 55 -31 33 -39 37 -75 33 -45
-4 -50 -1 -17 12 32 13 39 12 74 -9z m-1936 -14 c-10 -9 -11 -8 -5 6 3 10 9
15 12 12 3 -3 0 -11 -7 -18z m1186 17 c-3 -3 -12 -4 -19 -1 -8 3 -5 6 6 6 11
1 17 -2 13 -5z m-397 -23 c13 -25 14 -63 1 -42 -5 7 -11 9 -14 4 -7 -11 8
-186 18 -219 4 -13 -1 -29 -14 -45 l-21 -24 -19 22 c-33 39 -38 170 -9 245 6
15 14 26 18 23 4 -3 13 2 20 10 10 12 10 18 0 30 -8 10 -9 15 -2 15 6 0 16 -9
22 -19z m238 12 c-10 -2 -26 -2 -35 0 -10 3 -2 5 17 5 19 0 27 -2 18 -5z m59
-9 c-3 -3 -12 -4 -19 -1 -8 3 -5 6 6 6 11 1 17 -2 13 -5z m-937 -54 c0 -5 -4
-10 -10 -10 -5 0 -10 5 -10 10 0 6 5 10 10 10 6 0 10 -4 10 -10z m-3 -37 c-9
-9 -19 -14 -23 -11 -10 10 6 28 24 28 15 0 15 -1 -1 -17z m1993 7 c0 -5 -4
-10 -10 -10 -5 0 -10 5 -10 10 0 6 5 10 10 10 6 0 10 -4 10 -10z m-1333 -102
c-2 -18 -4 -4 -4 32 0 36 2 50 4 33 2 -18 2 -48 0 -65z m113 73 c0 -11 -5 -23
-11 -27 -15 -9 -33 12 -26 30 9 23 37 20 37 -3z m1222 -43 c2 -63 1 -71 -7
-123 l-7 -40 116 3 116 3 0 -38 0 -39 -102 8 c-137 11 -139 13 -135 165 2 114
16 157 19 61z m308 32 c0 -11 -2 -20 -4 -20 -2 0 -6 9 -9 20 -3 11 -1 20 4 20
5 0 9 -9 9 -20z m270 -2 c0 -19 -2 -20 -10 -8 -9 13 -11 13 -20 0 -8 -13 -10
-13 -10 2 0 9 8 19 18 21 9 3 18 5 20 6 1 0 2 -9 2 -21z m73 3 c-2 -9 -13 -17
-24 -17 -11 0 -19 7 -19 17 0 11 8 17 24 17 17 0 22 -5 19 -17z m350 -1 c3
-11 1 -20 -4 -20 -5 0 -9 9 -9 20 0 11 2 20 4 20 2 0 6 -9 9 -20z m61 4 c8
-21 1 -28 -18 -21 -9 4 -13 13 -10 22 8 20 20 19 28 -1z m-1701 -13 c6 -26 -7
-45 -27 -38 -16 6 -22 38 -9 50 12 13 31 7 36 -12z m977 9 c0 -5 -5 -10 -11
-10 -5 0 -7 5 -4 10 3 6 8 10 11 10 2 0 4 -4 4 -10z m40 -5 c0 -8 -7 -15 -15
-15 -16 0 -20 12 -8 23 11 12 23 8 23 -8z m40 -2 c0 -14 -2 -15 -9 -4 -7 11
-9 11 -14 0 -4 -10 -6 -9 -6 4 -1 9 6 17 14 17 8 0 15 -8 15 -17z m30 1 c0 -8
-4 -12 -10 -9 -5 3 -10 10 -10 16 0 5 5 9 10 9 6 0 10 -7 10 -16z m80 -2 c0
-9 -7 -13 -20 -9 -11 3 -23 1 -26 -4 -9 -16 -24 -10 -24 10 0 15 7 19 35 18
23 -1 35 -6 35 -15z m160 3 c0 -8 -4 -15 -10 -15 -5 0 -10 7 -10 15 0 8 5 15
10 15 6 0 10 -7 10 -15z m40 -2 c0 -14 -2 -15 -9 -4 -7 11 -9 11 -14 0 -4 -10
-6 -9 -6 4 -1 9 6 17 14 17 8 0 15 -8 15 -17z m110 0 c0 -9 -6 -13 -14 -10 -7
3 -19 0 -26 -6 -9 -9 -14 -9 -17 -1 -2 7 -13 10 -23 7 -11 -3 -20 -1 -20 4 0
17 9 20 55 20 33 0 45 -4 45 -14z m96 2 c-2 -5 -10 -8 -17 -6 -8 2 -26 4 -41
4 -14 1 -24 5 -22 9 7 11 85 5 80 -7z m44 -2 c0 -14 -2 -15 -9 -4 -7 11 -9 11
-14 0 -4 -10 -6 -9 -6 4 -1 9 6 17 14 17 8 0 15 -8 15 -17z m-2560 -43 c0 -5
-4 -10 -10 -10 -5 0 -10 5 -10 10 0 6 5 10 10 10 6 0 10 -4 10 -10z m535 -5
c87 -9 161 -17 163 -19 14 -15 -108 -6 -318 22 -109 15 -15 13 155 -3z m225
-25 c22 -7 21 -8 -12 -9 -21 -1 -38 4 -38 9 0 11 14 11 50 0z m1203 -40 c-3
-11 -9 -20 -14 -20 -10 0 -12 24 -2 33 13 13 21 7 16 -13z m24 -17 c-3 -10 -5
-4 -5 12 0 17 2 24 5 18 2 -7 2 -21 0 -30z m159 24 c8 3 14 -1 14 -9 0 -7 -9
-14 -20 -14 -14 0 -20 7 -19 21 0 11 3 15 5 8 3 -7 12 -9 20 -6z m434 -29 c0
-4 -9 -8 -20 -8 -20 0 -28 29 -13 44 7 7 33 -21 33 -36z m-557 6 c-4 -10 -9
-12 -15 -6 -12 12 -1 35 12 27 5 -3 6 -13 3 -21z m64 7 c0 -11 -5 -17 -9 -15
-11 7 -10 34 1 34 6 0 9 -9 8 -19z m146 5 c4 -10 1 -13 -8 -9 -8 3 -12 9 -9
14 7 12 11 11 17 -5z m67 -6 c-9 -6 -9 -9 1 -12 8 -3 10 -9 6 -14 -4 -5 -12
-3 -16 4 -4 7 -15 10 -24 6 -12 -4 -17 -1 -17 11 0 12 5 15 20 10 12 -4 20 -2
20 5 0 6 5 8 11 4 8 -5 8 -9 -1 -14z m90 1 c0 -4 -7 -8 -15 -8 -16 0 -20 9 -9
20 8 8 24 -1 24 -12z m93 6 c3 -8 -3 -14 -15 -14 -16 -2 -17 1 -8 13 15 17 17
17 23 1z m27 -7 c0 -11 -2 -20 -4 -20 -2 0 -6 9 -9 20 -3 11 -1 20 4 20 5 0 9
-9 9 -20z m-450 -5 c0 -8 -4 -15 -9 -15 -13 0 -22 16 -14 24 11 11 23 6 23 -9z
m140 7 c0 -13 -12 -22 -22 -16 -10 6 -1 24 13 24 5 0 9 -4 9 -8z m144 -7 c-4
-8 -10 -12 -15 -9 -14 8 -10 24 6 24 9 0 12 -6 9 -15z m93 1 c0 -6 -9 -12 -19
-12 -10 0 -18 5 -18 11 0 6 8 11 18 12 10 1 19 -4 19 -11z m1150 -52 c-3 -3
-12 -4 -19 -1 -8 3 -5 6 6 6 11 1 17 -2 13 -5z m-1701 -45 c-14 -9 -16 -13 -5
-20 7 -4 11 -10 8 -13 -2 -3 -11 -1 -18 4 -18 11 -6 40 16 40 17 -1 17 -1 -1
-11z m198 -5 c9 -22 8 -24 -9 -24 -8 0 -15 9 -15 20 0 24 15 27 24 4z m55 -27
c1 -5 -3 -5 -9 -2 -5 3 -10 16 -9 28 0 21 1 21 9 2 5 -11 9 -24 9 -28z m276
34 c-3 -5 -1 -12 4 -15 5 -4 13 -1 16 5 4 5 13 8 20 5 8 -3 15 -1 17 4 4 10
88 -11 88 -22 0 -4 -9 -8 -20 -8 -11 0 -20 5 -20 10 0 6 -5 10 -11 10 -5 0 -7
-4 -4 -10 3 -5 1 -10 -4 -10 -6 0 -11 6 -11 13 0 8 -4 7 -10 -3 -5 -8 -10 -11
-10 -6 0 5 -7 3 -15 -4 -11 -9 -15 -9 -15 -1 0 7 -5 9 -11 5 -6 -3 -15 0 -20
7 -12 19 -11 29 2 29 5 0 8 -4 4 -9z m-389 -13 c3 -4 3 -12 -1 -18 -5 -8 -11
-8 -21 1 -11 9 -14 8 -14 -5 0 -23 -15 -20 -28 7 -7 15 -11 17 -11 6 -1 -9 -9
-15 -21 -14 -24 2 -34 10 -26 23 6 11 111 10 122 0z m198 -5 c18 -10 18 -11
-4 -18 -16 -5 -26 -3 -28 4 -3 9 -8 9 -17 1 -9 -8 -15 -8 -20 0 -16 25 31 34
69 13z m40 2 c3 -8 1 -15 -4 -15 -6 0 -10 7 -10 15 0 8 2 15 4 15 2 0 6 -7 10
-15z m72 -4 c0 -14 -4 -17 -12 -11 -6 6 -14 7 -17 3 -4 -3 -7 -1 -7 5 0 9 14
19 30 21 3 1 6 -8 6 -18z m34 -2 c0 -5 -4 -9 -10 -9 -5 0 -10 7 -10 16 0 8 5
12 10 9 6 -3 10 -10 10 -16z m238 13 c13 11 14 11 10 -2 -2 -8 -14 -16 -26
-18 -17 -3 -20 0 -15 14 4 12 8 14 11 6 3 -10 7 -10 20 0z m45 -18 c-4 -10 -9
-12 -15 -6 -12 12 -1 35 12 27 5 -3 6 -13 3 -21z m-1229 -99 c-9 -14 -18 -25
-21 -25 -5 0 5 18 20 38 17 22 18 13 1 -13z m1150 9 c19 -19 21 -54 4 -77 -12
-16 -40 -17 -318 -15 l-304 3 -15 26 c-13 24 -13 29 2 53 l17 26 300 0 c258 0
301 -2 314 -16z m-7 -156 c-3 -8 -6 -5 -6 6 -1 11 2 17 5 13 3 -3 4 -12 1 -19z
m33 12 c0 -5 -4 -10 -10 -10 -5 0 -10 5 -10 10 0 6 5 10 10 10 6 0 10 -4 10
-10z m-510 -13 c0 -16 -124 -17 -140 -1 -9 9 9 12 64 13 57 1 76 -2 76 -12z
m200 3 c0 -6 -6 -10 -12 -11 -81 -4 -155 -5 -165 -1 -34 12 -4 19 82 20 57 1
95 -2 95 -8z m110 6 c0 -3 -4 -8 -10 -11 -5 -3 -10 -1 -10 4 0 6 5 11 10 11 6
0 10 -2 10 -4z m-367 -68 c20 -24 20 -79 -1 -86 -9 -3 -11 3 -6 22 7 29 1 31
-58 17 -22 -5 -36 -5 -32 0 3 5 1 9 -4 9 -5 0 -12 -12 -15 -26 -3 -18 -1 -24
9 -20 7 3 16 1 19 -5 4 -5 11 -6 17 -3 7 4 8 2 4 -4 -9 -15 7 -15 21 -1 14 14
47 4 38 -12 -4 -6 -13 -8 -20 -5 -8 3 -15 0 -17 -6 -3 -8 -15 -7 -41 1 -58 19
-68 86 -20 129 32 29 78 24 106 -10z m150 23 c4 -1 7 -5 7 -9 0 -5 -31 -9 -70
-10 -51 -1 -70 3 -70 12 0 11 41 13 133 7z m411 -17 c28 -29 32 -53 14 -87
-27 -52 -75 -61 -113 -22 -35 34 -34 86 1 114 36 28 66 26 98 -5z m-156 -24
c11 -18 10 -20 -13 -20 -14 0 -25 5 -25 10 0 16 -53 11 -77 -8 -12 -9 -29 -34
-37 -54 -15 -34 -14 -37 2 -41 15 -4 16 -5 0 -6 -26 -2 -28 11 -8 56 23 51 59
77 100 71 16 -3 30 -1 30 4 0 15 15 8 28 -12z m-1895 -117 c-13 -2 -33 -2 -45
0 -13 2 -3 4 22 4 25 0 35 -2 23 -4z m1687 -3 l-25 -8 25 -1 c24 -2 24 -2 -6
-15 -18 -8 -35 -19 -39 -25 -5 -9 -10 -9 -21 0 -12 10 -9 16 18 35 17 13 41
24 52 23 18 -1 18 -2 -4 -9z m-245 -41 c-10 -30 30 -52 84 -47 28 3 48 1 45
-4 -3 -4 -27 -8 -54 -8 -42 0 -52 4 -74 31 -14 17 -30 28 -34 25 -5 -3 -7 5
-4 19 3 21 7 22 23 12 11 -7 17 -19 14 -28z m525 27 c0 -10 -15 -13 -52 -12
-70 1 -73 21 -3 23 40 1 55 -2 55 -11z m130 -1 c0 -14 -112 -13 -117 1 -3 8
15 11 57 10 33 -1 60 -6 60 -11z m-282 -36 c13 -19 29 -35 35 -35 7 -1 22 -2
33 -3 28 -1 84 -54 83 -78 0 -14 -2 -14 -6 -3 -3 8 -17 27 -31 43 -31 32 -84
37 -102 10 -11 -17 -11 -17 -6 0 8 24 -17 82 -41 97 -11 7 -12 10 -3 7 8 -2
25 -19 38 -38z m-2308 20 c-47 -4 -114 -7 -150 -6 l-65 1 80 6 c44 3 112 6
150 7 l70 0 -85 -8z m2281 -16 c13 -16 12 -17 -3 -4 -10 7 -18 15 -18 17 0 8
8 3 21 -13z m222 -2 c65 -2 40 -21 -28 -21 -47 0 -65 4 -65 13 0 8 11 12 28
11 15 -1 44 -2 65 -3z m-235 -46 c2 -22 8 -45 14 -52 5 -7 7 -17 3 -23 -3 -5
-1 -10 4 -10 6 0 3 -9 -7 -20 -9 -11 -18 -16 -20 -10 -2 5 -8 10 -13 10 -6 0
-8 -4 -5 -9 4 -5 -3 -7 -14 -4 -18 5 -16 7 12 22 30 14 47 48 23 44 -5 -1 -10
15 -10 35 l0 37 -54 3 -53 3 4 -40 c2 -21 0 -37 -4 -35 -8 5 -11 77 -4 85 3 2
31 4 63 4 l58 0 3 -40z m-168 25 c0 -5 -5 -10 -11 -10 -5 0 -7 5 -4 10 3 6 8
10 11 10 2 0 4 -4 4 -10z m140 -46 c0 -10 -10 -14 -31 -12 -34 3 -51 18 -20
18 12 0 21 4 21 10 0 5 7 7 15 4 8 -4 15 -12 15 -20z m-85 -68 c15 -15 16 -18
3 -13 -10 4 -18 -1 -21 -12 -4 -15 -15 -18 -67 -17 -38 1 -65 6 -67 13 -3 8
14 10 57 9 71 -3 87 9 58 44 -16 21 -19 21 -13 5 5 -15 3 -17 -6 -8 -6 6 -8
17 -4 23 5 9 12 7 24 -7 8 -10 25 -27 36 -37z m50 34 c3 -6 -1 -7 -9 -4 -18 7
-21 14 -7 14 6 0 13 -4 16 -10z m106 -13 c-10 -9 -11 -8 -5 6 3 10 9 15 12 12
3 -3 0 -11 -7 -18z m-311 -4 c11 -4 8 -8 -10 -13 -33 -8 -60 -1 -60 16 0 14
27 13 70 -3z m-4002 -40 c-10 -2 -26 -2 -35 0 -10 3 -2 5 17 5 19 0 27 -2 18
-5z m3992 -4 c0 -12 -29 -17 -95 -17 -64 -1 -95 5 -95 17 0 4 43 7 95 7 52 0
95 -3 95 -7z m490 2 c0 -13 -26 -32 -33 -24 -14 13 -6 33 13 33 11 0 20 -4 20
-9z m-4402 -8 c-10 -2 -28 -2 -40 0 -13 2 -5 4 17 4 22 1 32 -1 23 -4z m80
-10 c-10 -2 -28 -2 -40 0 -13 2 -5 4 17 4 22 1 32 -1 23 -4z m70 -10 c-10 -2
-26 -2 -35 0 -10 3 -2 5 17 5 19 0 27 -2 18 -5z m127 -13 c31 -7 24 -7 -30 -3
-38 3 -72 7 -74 9 -8 7 64 3 104 -6z m3614 -7 c11 -10 24 -32 27 -50 5 -27 1
-37 -25 -64 -25 -25 -37 -30 -59 -25 -63 15 -85 97 -36 135 33 26 65 27 93 4z
m208 -24 c-8 -19 -25 -43 -38 -54 -20 -17 -20 -15 4 13 15 19 27 41 27 51 0
18 10 34 17 27 2 -2 -2 -19 -10 -37z m368 16 c24 -24 31 -57 19 -90 -7 -18
-55 -45 -79 -45 -24 0 -75 55 -75 80 0 30 53 80 85 80 14 0 37 -11 50 -25z
m-485 -69 c0 -2 -3 -12 -6 -20 -5 -13 -9 -14 -20 -5 -20 16 -17 29 6 29 11 0
20 -2 20 -4z m350 -44 c0 -8 -12 -12 -35 -10 -20 1 -35 7 -35 14 0 8 13 12 35
11 21 -1 35 -7 35 -15z m-273 -28 c3 -8 1 -20 -5 -26 -12 -12 -66 -2 -58 11 3
5 -6 11 -19 14 -32 6 -43 -9 -13 -16 12 -4 19 -9 16 -13 -13 -12 -48 8 -48 27
0 17 7 19 60 19 46 0 62 -4 67 -16z m263 -15 c0 -9 -47 -12 -139 -11 -45 1
-56 5 -48 19 7 11 187 4 187 -8z m150 1 c0 -4 -29 -8 -65 -9 -36 -1 -65 3 -65
8 0 5 7 11 16 13 28 5 114 -3 114 -12z"/>
<path d="M6610 4918 c0 -17 23 -68 31 -68 5 0 2 15 -7 33 -18 34 -24 44 -24
35z"/>
<path d="M6477 4869 c7 -7 15 -10 18 -7 3 3 -2 9 -12 12 -14 6 -15 5 -6 -5z"/>
<path d="M6422 4833 c-7 -2 -17 -14 -23 -26 -12 -22 -11 -22 13 1 13 12 28 19
33 15 4 -5 5 -2 1 5 -4 6 -8 12 -9 11 -1 0 -8 -3 -15 -6z"/>
<path d="M5488 4695 c-11 -19 -49 -157 -45 -162 3 -2 10 13 17 34 6 21 18 54
27 75 14 33 15 75 1 53z"/>
<path d="M5604 4598 l-19 -23 23 19 c21 18 27 26 19 26 -2 0 -12 -10 -23 -22z"/>
<path d="M5205 4570 c-4 -6 8 -10 30 -10 19 0 68 -9 107 -20 39 -11 74 -18 76
-15 6 6 -2 8 -101 34 -87 24 -103 25 -112 11z"/>
<path d="M5550 4550 c-8 -6 -32 -15 -54 -21 -24 -6 -35 -14 -29 -20 10 -10
112 30 113 44 0 10 -12 9 -30 -3z"/>
<path d="M5295 4520 c28 -12 37 -12 30 0 -3 6 -16 10 -28 9 -21 0 -21 -1 -2
-9z"/>
<path d="M5430 4511 c0 -6 5 -13 10 -16 6 -3 10 1 10 9 0 9 -4 16 -10 16 -5 0
-10 -4 -10 -9z"/>
<path d="M5959 4473 c-13 -15 -12 -15 9 -4 23 12 28 21 13 21 -5 0 -15 -7 -22
-17z"/>
<path d="M5902 4425 c-18 -19 -46 -41 -62 -50 -44 -23 -36 -35 12 -18 54 19
68 30 68 57 0 12 5 27 12 34 7 7 10 12 7 12 -3 0 -20 -16 -37 -35z"/>
<path d="M5944 4429 c-8 -14 11 -33 25 -25 6 4 11 14 11 22 0 16 -26 19 -36 3z"/>
<path d="M5522 4280 c0 -14 2 -19 5 -12 2 6 2 18 0 25 -3 6 -5 1 -5 -13z"/>
<path d="M5719 4251 c-73 -46 -95 -81 -139 -219 -47 -152 -60 -209 -53 -229 4
-9 21 39 39 106 45 163 79 259 101 283 10 11 42 34 71 50 28 17 52 32 52 34 0
11 -30 1 -71 -25z"/>
<path d="M6032 4254 c-19 -13 -22 -24 -22 -80 0 -61 1 -64 24 -64 22 0 24 4
28 73 3 39 2 75 -1 79 -4 4 -17 1 -29 -8z"/>
<path d="M7550 4116 c0 -2 7 -9 15 -16 13 -11 14 -10 9 4 -5 14 -24 23 -24 12z"/>
<path d="M5502 4080 c0 -19 2 -27 5 -17 2 9 2 25 0 35 -3 9 -5 1 -5 -18z"/>
<path d="M7565 3930 c-3 -5 -1 -10 4 -10 6 0 11 5 11 10 0 6 -2 10 -4 10 -3 0
-8 -4 -11 -10z"/>
<path d="M5783 3805 c0 -22 2 -30 4 -17 2 12 2 30 0 40 -3 9 -5 -1 -4 -23z"/>
<path d="M5770 3651 c0 -22 -3 -47 -6 -55 -5 -13 -271 -156 -289 -156 -2 0 -6
8 -8 18 -3 10 -5 6 -6 -11 0 -16 2 -27 7 -25 4 2 68 34 144 71 141 70 164 77
154 52 -3 -8 -1 -15 4 -15 6 0 10 35 10 80 0 44 -2 80 -5 80 -3 0 -5 -18 -5
-39z"/>
<path d="M5462 3510 c0 -19 2 -27 5 -17 2 9 2 25 0 35 -3 9 -5 1 -5 -18z"/>
<path d="M3190 3510 c0 -5 5 -10 11 -10 5 0 7 5 4 10 -3 6 -8 10 -11 10 -2 0
-4 -4 -4 -10z"/>
<path d="M5773 3380 c0 -25 2 -35 4 -22 2 12 2 32 0 45 -2 12 -4 2 -4 -23z"/>
<path d="M5461 3227 c-1 -34 -4 -38 -21 -32 -11 3 -20 2 -20 -3 0 -8 52 -25
56 -19 1 1 -2 22 -6 47 l-7 45 -2 -38z"/>
<path d="M1795 3180 c-72 -43 -74 -46 -75 -83 l0 -39 72 4 c70 3 72 2 81 -25
11 -35 41 -37 35 -2 -6 28 6 34 16 9 4 -10 14 -14 26 -11 11 3 61 -1 112 -9
119 -18 115 -18 122 11 6 22 12 25 47 25 56 0 75 -13 95 -66 9 -25 35 -63 57
-85 40 -38 54 -49 42 -29 -7 12 18 14 29 3 8 -9 12 -10 59 -13 31 -2 31 -2 7
-11 -18 -6 -10 -7 25 -3 28 3 52 7 54 9 2 2 0 21 -3 41 -5 24 -14 38 -27 41
-22 6 -26 23 -5 23 31 0 -44 195 -78 204 -65 18 -155 17 -241 -2 -90 -21 -90
-21 -118 -1 -29 21 -189 60 -231 57 -14 -1 -60 -23 -101 -48z m41 -51 c1 -30
-2 -45 -7 -37 -11 16 -12 88 -1 88 4 0 7 -23 8 -51z m274 23 c0 -4 -9 -8 -20
-9 -11 -1 -20 2 -20 8 0 5 9 9 20 9 11 0 20 -4 20 -8z m-230 -16 c0 -8 -4 -17
-9 -21 -6 -3 -9 4 -8 15 1 23 17 28 17 6z m170 4 c0 -5 -7 -10 -15 -10 -8 0
-15 5 -15 10 0 6 7 10 15 10 8 0 15 -4 15 -10z m318 -7 c14 -28 23 -83 13 -83
-10 0 -21 25 -21 48 0 8 -7 24 -17 34 -15 16 -15 18 0 18 9 0 20 -8 25 -17z
m-354 -9 c11 -27 7 -37 -9 -24 -8 7 -21 10 -30 7 -8 -4 -17 -2 -20 3 -4 6 1
10 9 10 9 0 16 5 16 10 0 16 27 11 34 -6z m-277 -16 c-3 -8 -6 -5 -6 6 -1 11
2 17 5 13 3 -3 4 -12 1 -19z m713 -129 c0 -6 7 -8 16 -5 8 3 13 2 10 -3 -9
-14 -39 -19 -61 -10 -13 5 -15 8 -5 8 13 1 13 2 0 11 -12 8 -9 10 13 10 15 0
27 -5 27 -11z"/>
<path d="M3863 3095 c0 -44 2 -61 4 -37 2 23 2 59 0 80 -2 20 -4 1 -4 -43z"/>
<path d="M5948 3033 c7 -3 16 -2 19 1 4 3 -2 6 -13 5 -11 0 -14 -3 -6 -6z"/>
<path d="M3850 3002 c0 -5 7 -15 15 -22 8 -7 15 -9 15 -6 0 4 -7 14 -15 22 -8
9 -15 11 -15 6z"/>
<path d="M1751 2981 c-2 -31 23 -81 41 -81 22 0 24 16 3 24 -8 3 -21 20 -29
38 -8 18 -15 27 -15 19z"/>
<path d="M1877 2958 c-10 -27 4 -100 19 -94 7 3 16 0 20 -6 4 -7 3 -8 -4 -4
-15 9 -15 1 -2 -25 13 -23 38 -25 46 -4 4 9 -6 25 -25 41 -23 19 -29 32 -26
47 7 28 -19 68 -28 45z"/>
<path d="M3853 2920 c0 -30 2 -43 4 -27 2 15 2 39 0 55 -2 15 -4 2 -4 -28z"/>
<path d="M1930 2942 c0 -5 20 -10 45 -10 25 -1 50 -4 56 -7 15 -10 0 -25 -18
-18 -10 4 -14 2 -10 -4 4 -5 36 -11 72 -12 51 -1 65 1 65 13 0 8 8 16 18 18 9
2 -23 7 -73 11 -49 4 -105 10 -122 13 -19 4 -33 2 -33 -4z"/>
<path d="M2275 2895 c2 -25 0 -43 -5 -40 -5 3 -34 8 -64 11 -49 5 -56 3 -56
-12 0 -15 -8 -16 -65 -11 -51 5 -63 4 -59 -7 7 -18 54 -27 76 -15 10 6 19 5
23 -1 10 -16 35 -12 42 8 8 21 26 34 33 23 3 -4 53 -24 111 -44 92 -32 117
-37 195 -37 l89 1 -74 24 c-40 14 -86 25 -101 25 -70 0 -89 10 -102 54 -22 77
-49 90 -43 21z"/>
<path d="M1960 2910 c-12 -8 -10 -10 8 -10 13 0 20 4 17 10 -7 12 -6 12 -25 0z"/>
<path d="M1975 2870 c3 -5 20 -10 36 -10 18 0 28 4 24 10 -3 6 -20 10 -36 10
-18 0 -28 -4 -24 -10z"/>
<path d="M2052 2868 c3 -7 13 -15 22 -16 12 -3 17 1 14 10 -3 7 -13 15 -22 16
-12 3 -17 -1 -14 -10z"/>
<path d="M2108 2858 c9 -9 15 -9 24 0 9 9 7 12 -12 12 -19 0 -21 -3 -12 -12z"/>
<path d="M3851 2844 c0 -11 3 -14 6 -6 3 7 2 16 -1 19 -3 4 -6 -2 -5 -13z"/>
<path d="M2507 2834 c-11 -11 3 -24 24 -24 12 0 19 5 17 13 -5 14 -31 21 -41
11z"/>
<path d="M3841 2764 c0 -11 3 -14 6 -6 3 7 2 16 -1 19 -3 4 -6 -2 -5 -13z"/>
<path d="M3840 2674 c0 -8 5 -12 10 -9 6 3 10 10 10 16 0 5 -4 9 -10 9 -5 0
-10 -7 -10 -16z"/>
<path d="M4304 2520 c17 -6 36 -5 45 0 11 7 3 9 -29 9 -42 -1 -43 -1 -16 -9z"/>
<path d="M4238 2508 c9 -9 15 -9 24 0 9 9 7 12 -12 12 -19 0 -21 -3 -12 -12z"/>
<path d="M4220 2320 c0 -5 12 -10 26 -10 14 0 23 4 19 10 -3 6 -15 10 -26 10
-10 0 -19 -4 -19 -10z"/>
<path d="M4353 2309 c14 -8 22 -8 30 0 8 8 3 11 -18 11 -26 -1 -28 -2 -12 -11z"/>
<path d="M4280 2270 c0 -5 20 -10 45 -10 25 0 45 5 45 10 0 6 -20 10 -45 10
-25 0 -45 -4 -45 -10z"/>
<path d="M6076 1471 c-4 -5 3 -7 14 -4 23 6 26 13 6 13 -8 0 -17 -4 -20 -9z"/>
<path d="M5758 1453 c6 -2 18 -2 25 0 6 3 1 5 -13 5 -14 0 -19 -2 -12 -5z"/>
<path d="M6248 1443 c7 -3 16 -2 19 1 4 3 -2 6 -13 5 -11 0 -14 -3 -6 -6z"/>
<path d="M5245 1395 c-5 -2 -95 -11 -200 -20 -104 -9 -203 -18 -220 -20 -16
-2 -95 -9 -175 -16 l-145 -13 155 -18 c85 -10 178 -20 205 -22 28 -3 57 -7 65
-9 24 -9 229 -27 296 -27 34 0 142 9 240 19 99 11 277 30 396 42 119 13 216
25 214 26 -4 4 -748 63 -785 62 -20 0 -40 -2 -46 -4z m-318 -67 c-3 -8 -6 -5
-6 6 -1 11 2 17 5 13 3 -3 4 -12 1 -19z"/>
<path d="M5853 1383 c9 -2 23 -2 30 0 6 3 -1 5 -18 5 -16 0 -22 -2 -12 -5z"/>
<path d="M5933 1373 c9 -2 25 -2 35 0 9 3 1 5 -18 5 -19 0 -27 -2 -17 -5z"/>
<path d="M6175 1270 c-3 -5 1 -10 9 -10 8 0 18 5 21 10 3 6 -1 10 -9 10 -8 0
-18 -4 -21 -10z"/>
<path d="M6045 1250 c4 -6 11 -8 16 -5 14 9 11 15 -7 15 -8 0 -12 -5 -9 -10z"/>
<path d="M6103 1253 c9 -2 23 -2 30 0 6 3 -1 5 -18 5 -16 0 -22 -2 -12 -5z"/>
<path d="M5995 1241 c-3 -5 -2 -12 3 -15 5 -3 9 1 9 9 0 17 -3 19 -12 6z"/>
<path d="M6168 1243 c7 -3 16 -2 19 1 4 3 -2 6 -13 5 -11 0 -14 -3 -6 -6z"/>
<path d="M6088 1233 c7 -3 16 -2 19 1 4 3 -2 6 -13 5 -11 0 -14 -3 -6 -6z"/>
<path d="M6015 2900 c11 -5 29 -9 40 -9 17 -1 17 1 5 9 -8 5 -26 9 -40 9 -23
0 -23 -1 -5 -9z"/>
<path d="M6930 2576 c0 -24 17 -28 23 -6 3 13 0 20 -9 20 -8 0 -14 -6 -14 -14z"/>
<path d="M5827 2273 c-4 -3 -7 -11 -7 -17 0 -6 5 -5 12 2 6 6 9 14 7 17 -3 3
-9 2 -12 -2z"/>
<path d="M5777 2232 c-16 -17 -31 -96 -17 -87 4 3 13 -17 20 -43 20 -81 60
-106 79 -51 22 64 6 157 -32 184 -27 19 -30 19 -50 -3z"/>
<path d="M5977 2226 c-6 -15 18 -55 26 -46 8 7 -4 60 -13 60 -4 0 -10 -6 -13
-14z"/>
<path d="M5860 2210 c0 -5 5 -10 10 -10 6 0 10 5 10 10 0 6 -4 10 -10 10 -5 0
-10 -4 -10 -10z"/>
<path d="M5891 2121 c-8 -5 -9 -11 -3 -15 5 -3 12 1 16 9 6 17 6 18 -13 6z"/>
<path d="M5990 2085 c-14 -17 -10 -47 8 -53 8 -2 12 8 12 32 0 40 -2 42 -20
21z"/>
<path d="M5875 2020 c-3 -5 -1 -10 4 -10 6 0 11 5 11 10 0 6 -2 10 -4 10 -3 0
-8 -4 -11 -10z"/>
<path d="M5740 2009 c0 -5 5 -7 10 -4 6 3 10 8 10 11 0 2 -4 4 -10 4 -5 0 -10
-5 -10 -11z"/>
<path d="M5835 1960 c-3 -5 -1 -10 4 -10 6 0 11 5 11 10 0 6 -2 10 -4 10 -3 0
-8 -4 -11 -10z"/>
<path d="M6665 1880 c-3 -6 1 -7 9 -4 18 7 21 14 7 14 -6 0 -13 -4 -16 -10z"/>
<path d="M6900 1881 c0 -6 5 -13 11 -17 8 -4 7 -9 -2 -15 -10 -6 -10 -9 -2 -9
16 0 26 17 13 25 -6 4 -8 11 -5 16 4 5 1 9 -4 9 -6 0 -11 -4 -11 -9z"/>
<path d="M6715 1869 c-4 -6 -4 -13 -1 -16 3 -4 6 0 6 7 0 9 5 7 16 -6 14 -18
15 -18 4 4 -12 25 -16 27 -25 11z"/>
<path d="M6667 1849 c7 -7 15 -10 18 -7 3 3 -2 9 -12 12 -14 6 -15 5 -6 -5z"/>
<path d="M6870 1850 c-9 -6 -10 -10 -3 -10 6 0 15 5 18 10 8 12 4 12 -15 0z"/>
<path d="M7023 1623 c8 -7 108 -5 116 3 2 2 -24 4 -59 4 -35 0 -60 -3 -57 -7z"/>
<path d="M6720 1525 c-19 -23 -8 -25 14 -4 11 11 15 19 9 19 -6 0 -16 -7 -23
-15z"/>
<path d="M7095 1220 c3 -5 8 -10 11 -10 2 0 4 5 4 10 0 6 -5 10 -11 10 -5 0
-7 -4 -4 -10z"/>
<path d="M6690 1140 c-12 -8 -10 -10 8 -10 13 0 20 4 17 10 -7 12 -6 12 -25 0z"/>
</g>
</svg>
