<?xml version="1.0" standalone="no"?>
<!DOCTYPE svg PUBLIC "-//W3C//DTD SVG 20010904//EN"
 "http://www.w3.org/TR/2001/REC-SVG-20010904/DTD/svg10.dtd">
<svg version="1.0" xmlns="http://www.w3.org/2000/svg"
 width="654.000000pt" height="457.000000pt" viewBox="0 0 654.000000 457.000000"
 preserveAspectRatio="xMidYMid meet">

<g transform="translate(0.000000,457.000000) scale(0.100000,-0.100000)"
fill="#000000" stroke="none">
<path d="M53 4556 c3 -8 9 -43 12 -78 4 -35 15 -85 26 -113 11 -31 20 -82 22
-135 2 -61 10 -105 29 -155 14 -38 29 -87 33 -107 5 -34 25 -55 25 -27 0 29
20 -9 31 -59 7 -31 16 -61 21 -66 14 -16 9 -26 -9 -20 -10 3 -3 -8 15 -24 28
-25 32 -33 24 -49 -9 -16 3 -33 73 -108 64 -68 87 -87 93 -76 8 10 20 6 62
-22 59 -40 102 -41 53 -1 -15 13 -35 26 -43 29 -8 3 -25 26 -38 53 -23 48 -24
91 -3 130 11 22 -2 42 -29 42 -9 0 -21 5 -28 12 -15 15 -16 78 -1 78 8 0 10
12 6 36 -4 25 -2 41 8 51 20 20 19 30 -5 36 -12 3 -20 14 -20 25 0 16 6 20 28
19 25 -2 27 0 24 36 -3 36 -3 37 30 37 18 0 44 7 56 16 29 20 30 81 2 117 -11
14 -20 27 -20 29 0 1 19 3 42 3 46 0 55 10 79 92 6 23 18 44 25 47 8 3 14 15
14 27 0 13 5 37 11 54 7 18 9 44 5 58 l-6 27 -326 0 c-279 0 -325 -2 -321 -14z"/>
<path d="M2514 4509 c8 -72 14 -89 30 -89 7 0 82 13 167 29 85 17 208 40 274
51 121 22 145 31 145 56 0 12 -54 14 -311 14 l-312 0 7 -61z"/>
<path d="M3345 4533 c8 -46 11 -49 53 -57 31 -5 34 -3 48 29 25 60 21 65 -47
65 l-61 0 7 -37z"/>
<path d="M5246 4541 c-16 -31 -34 -41 -71 -41 -13 0 -26 -4 -30 -9 -6 -11 -63
-41 -77 -41 -16 0 -85 -74 -93 -100 -7 -24 -13 -59 -35 -207 -13 -94 -25 -123
-49 -123 -24 0 -45 25 -37 45 3 9 2 13 -4 10 -15 -9 -12 -26 8 -48 13 -14 18
-44 23 -120 l5 -102 2 103 c2 120 22 134 22 16 0 -41 2 -74 4 -74 2 0 23 9 47
20 24 11 58 20 75 20 18 0 38 8 48 19 10 11 41 25 69 32 28 6 65 21 83 31 33
19 33 19 63 -3 24 -17 31 -31 31 -56 0 -36 2 -38 31 -23 23 13 26 -2 4 -20 -8
-7 -15 -17 -15 -23 0 -7 4 -7 12 1 17 17 29 15 22 -3 -7 -18 -10 -18 94 -1 73
12 91 11 156 -4 l74 -17 24 36 c63 95 88 128 107 145 12 11 21 24 21 30 0 6
13 39 29 72 26 55 29 69 25 140 -8 154 -13 197 -24 208 -5 5 -10 20 -10 32 0
13 -5 26 -11 30 -6 3 -8 17 -5 30 l6 23 -305 1 -304 0 -15 -29z"/>
<path d="M6357 4491 c-5 -22 1 -33 14 -25 12 7 12 44 0 44 -5 0 -11 -9 -14
-19z"/>
<path d="M3028 4463 c-43 -8 -78 -19 -78 -24 0 -5 6 -9 14 -9 29 0 171 32 181
41 13 12 -25 10 -117 -8z"/>
<path d="M6310 4469 c0 -26 12 -59 21 -59 15 0 10 47 -6 60 -12 10 -15 10 -15
-1z"/>
<path d="M3240 4452 c0 -8 141 -42 174 -42 36 0 7 12 -71 31 -88 21 -103 22
-103 11z"/>
<path d="M2758 4412 c-52 -9 -88 -21 -88 -28 0 -8 14 -8 58 1 31 7 78 16 105
20 26 3 47 10 47 16 0 11 -12 10 -122 -9z"/>
<path d="M3205 4407 c-19 -11 -20 -19 -15 -142 7 -154 12 -154 10 -1 -1 99 1
111 21 132 24 25 17 30 -16 11z"/>
<path d="M3503 4394 c7 -7 413 -103 470 -111 29 -4 37 -9 33 -20 -5 -11 -2
-13 10 -9 8 3 18 6 20 6 2 0 4 4 4 9 0 12 -81 35 -308 86 -197 44 -242 51
-229 39z"/>
<path d="M2495 4364 c-83 -17 -104 -21 -212 -36 -56 -7 -83 -15 -83 -24 0 -14
26 -12 100 7 53 14 55 13 68 -44 13 -57 16 -644 4 -727 -6 -40 -10 -45 -35
-48 -32 -4 -50 28 -36 66 14 36 11 82 -7 99 -14 14 -15 8 -13 -70 2 -57 -1
-90 -10 -100 -9 -12 -10 -21 -2 -36 17 -31 13 -51 -9 -51 -16 0 -20 7 -21 38
-1 36 -2 36 -8 7 -7 -29 -7 -28 -14 15 -4 25 -6 204 -6 399 0 194 -2 356 -5
359 -5 5 -12 -250 -8 -288 3 -22 2 -522 -1 -545 -2 -18 3 -20 53 -17 36 2 59
9 68 20 10 13 16 14 30 6 26 -17 28 -44 3 -44 -12 0 -21 -4 -21 -9 0 -6 -14
-11 -32 -13 -29 -3 -32 -6 -33 -38 0 -32 -3 -35 -32 -38 -31 -3 -33 -1 -33 27
0 17 -5 31 -11 31 -7 0 -9 -12 -5 -34 8 -40 -4 -50 -70 -59 l-42 -5 -6 40 -6
39 -63 -5 c-34 -3 -67 -5 -74 -5 -7 -1 -13 -19 -15 -43 -3 -41 -4 -43 -39 -46
-35 -3 -37 -1 -43 34 l-7 37 -61 -7 c-34 -3 -69 -6 -79 -6 -15 0 -19 -8 -19
-39 0 -32 -4 -41 -21 -46 -24 -8 -39 8 -39 42 0 30 -7 32 -70 25 -49 -6 -55
-9 -52 -29 2 -12 -2 -32 -9 -44 -13 -26 -61 -28 476 26 158 16 708 77 1030
116 l190 22 220 -32 c121 -18 292 -44 380 -57 88 -14 378 -56 645 -94 267 -37
493 -71 502 -75 19 -7 21 -3 33 48 7 36 27 30 37 -11 l9 -32 72 -1 c99 -2 42
-16 -70 -18 -76 -1 -83 -3 -83 -21 0 -18 7 -20 78 -20 99 0 601 -54 705 -76
29 -6 38 -34 11 -34 -10 0 -14 -6 -10 -15 3 -8 -2 -21 -10 -29 -11 -12 -14
-35 -11 -103 l3 -88 2 88 c1 49 6 87 12 87 6 0 10 -119 10 -331 l-1 -331 -247
6 c-145 3 -237 2 -222 -3 23 -8 24 -9 3 -10 -12 -1 -25 -5 -28 -11 -8 -13 -65
-13 -65 -1 0 5 -12 12 -27 14 l-28 4 28 2 c38 2 34 17 -5 18 -75 2 -152 13
-162 23 -7 7 8 10 47 10 l57 0 1 345 c0 190 1 360 2 378 l0 32 -94 0 c-83 0
-94 2 -93 17 1 10 -2 15 -7 12 -14 -8 -11 -30 6 -44 10 -8 15 -39 18 -108 l3
-97 2 98 c1 56 6 97 12 97 6 0 10 -131 10 -372 -1 -315 -3 -376 -16 -393 -21
-29 -134 -38 -166 -13 -23 17 -23 18 27 19 28 1 -51 8 -175 15 -287 16 -290
16 -290 4 0 -5 15 -11 33 -11 21 -1 25 -3 12 -6 -11 -3 -28 -12 -37 -20 -19
-17 -88 -11 -88 7 0 6 -22 10 -50 10 l-49 0 2 428 c1 272 6 429 12 432 6 3 12
-37 16 -105 l5 -110 2 102 c1 59 6 105 13 108 5 4 14 18 19 31 10 26 25 28
118 15 28 -4 52 -4 52 0 0 4 -21 10 -47 13 -27 4 -65 9 -85 12 -29 4 -38 2
-38 -9 0 -7 -8 -21 -18 -30 -21 -19 -48 -7 -39 18 4 9 -1 25 -14 38 -17 18
-21 19 -29 7 -5 -8 -7 -25 -4 -37 7 -28 -15 -39 -46 -23 -15 8 -20 18 -17 31
3 10 1 17 -4 13 -17 -10 -9 -33 16 -50 23 -15 25 -22 28 -122 l3 -107 2 108
c1 63 6 107 12 107 12 0 14 -826 2 -834 -5 -3 -116 -1 -248 4 -424 17 -454 17
-454 9 0 -5 5 -9 12 -9 6 0 3 -9 -7 -20 -22 -25 -93 -28 -101 -5 -5 12 -26 15
-100 15 -52 0 -94 4 -94 9 0 6 39 8 95 4 62 -3 95 -1 95 6 0 5 21 12 48 14 40
3 -110 12 -173 10 -11 0 -107 -4 -212 -8 l-193 -7 0 26 c0 26 0 26 85 26 69 0
85 3 85 15 0 8 7 15 16 15 12 0 14 -3 6 -13 -9 -10 9 -12 91 -9 56 2 107 5
113 7 7 2 10 135 9 434 -1 237 1 431 4 431 3 0 5 21 3 46 l-4 45 -37 -5 c-156
-22 -180 -28 -184 -44 -4 -15 -5 -15 -6 -1 -1 20 -52 32 -64 16 -6 -9 -10 -9
-14 1 -2 6 -9 12 -14 12 -6 0 -8 -4 -4 -9 6 -10 -22 -16 -107 -25 -44 -4 -100
-25 -70 -26 20 0 13 -20 -8 -20 -13 0 -18 5 -14 15 6 16 -2 18 -48 15 -18 -1
-28 4 -28 12 0 10 -2 10 -8 0 -5 -7 -32 -16 -60 -21 -28 -4 -49 -4 -46 1 3 4
0 8 -6 8 -6 0 -10 -10 -9 -22 2 -13 0 -29 -5 -37 -5 -8 -3 -17 5 -22 12 -8 12
-11 -1 -19 -23 -15 -35 -6 -33 24 1 14 -2 26 -7 26 -5 0 -7 7 -3 17 6 15 -2
15 -86 9 -50 -4 -103 -11 -117 -16 l-24 -10 2 -167 3 -167 45 -3 c48 -4 110
-13 260 -38 52 -8 109 -18 127 -21 56 -9 74 -32 82 -108 4 -37 5 -69 1 -71 -3
-2 -71 5 -150 15 -354 45 -1043 91 -1063 71 -8 -8 2 -11 38 -11 125 -1 765
-45 813 -55 12 -3 53 -8 90 -10 63 -5 175 -19 250 -31 26 -4 32 -10 32 -29 0
-24 -1 -25 -62 -19 -56 6 -61 5 -45 -8 17 -13 18 -29 15 -229 -2 -117 -8 -222
-13 -233 -4 -10 -22 -24 -39 -32 -17 -7 -24 -13 -16 -14 28 0 59 30 70 68 5
20 10 129 10 240 l0 204 43 -7 c23 -4 43 -8 44 -9 3 -3 43 -412 53 -550 9
-117 8 -142 -3 -154 -15 -15 -74 -24 -622 -97 -601 -80 -805 -112 -805 -126 0
-5 2 -9 5 -9 17 0 209 31 215 35 4 3 124 18 266 35 143 17 321 40 396 51 75
10 141 19 145 18 4 -1 15 0 23 3 8 4 58 11 110 17 52 6 127 16 165 21 39 6 79
11 90 13 22 2 21 27 9 -295 l-6 -168 -32 -5 c-17 -3 -123 -12 -235 -20 -112
-9 -224 -20 -250 -26 -71 -16 -123 -52 -208 -145 -43 -47 -90 -92 -106 -100
-61 -33 -640 -44 -749 -14 l-48 12 0 47 c0 25 3 89 6 142 l7 97 60 7 c45 5 62
3 68 -7 21 -32 1 -218 -26 -248 -21 -23 -19 -33 4 -21 10 6 24 25 30 42 12 34
13 252 2 304 -10 48 -41 44 -90 -11 -40 -46 -41 -46 -41 -19 0 47 51 277 72
326 25 60 58 90 140 129 37 18 69 39 73 48 6 15 25 203 60 592 17 198 23 190
-143 191 -358 4 -821 -15 -834 -35 -4 -6 -8 -28 -8 -48 0 -21 -4 -38 -10 -38
-5 0 -10 4 -10 9 0 38 -99 -4 -136 -58 -40 -60 -26 -131 27 -131 30 0 74 26
99 57 l21 28 -5 -160 c-3 -88 -6 -186 -6 -218 l0 -57 -42 -19 c-24 -10 -60
-26 -80 -34 -45 -19 -64 -49 -43 -67 31 -26 730 -87 874 -76 l84 6 -27 -21
c-37 -29 -61 -81 -90 -195 -32 -126 -53 -276 -62 -432 -4 -67 -9 -122 -11
-122 -2 0 -57 13 -121 29 -99 25 -507 122 -579 138 -17 4 -23 1 -23 -12 0 -9
-9 -34 -19 -54 -10 -20 -24 -67 -31 -104 -11 -60 -10 -70 4 -86 9 -10 16 -26
16 -37 0 -42 32 -140 55 -170 14 -18 49 -44 77 -57 56 -26 430 -151 485 -162
69 -14 124 49 140 160 5 41 8 46 27 41 50 -14 189 -28 295 -29 l114 -1 -7
-130 c-3 -72 -11 -135 -17 -141 -20 -20 -191 -18 -311 5 -135 25 -485 124
-616 173 -101 38 -106 37 -100 -24 3 -29 10 -36 61 -62 70 -34 276 -110 441
-163 l119 -38 -54 -11 c-63 -13 -99 -30 -99 -49 0 -14 50 -39 120 -59 l45 -13
-157 -19 c-86 -10 -162 -21 -170 -26 -23 -15 4 -41 73 -70 l64 -28 402 -1
c326 0 416 3 475 15 49 11 89 14 123 8 l50 -7 -40 -7 c-28 -4 -9 -7 60 -8 174
-2 613 71 662 111 6 5 51 13 100 18 169 18 306 40 825 135 598 110 1280 237
1383 259 38 8 73 12 77 10 18 -11 368 72 368 88 0 5 22 6 49 2 38 -5 80 1 192
29 79 20 196 41 259 46 157 15 290 40 297 57 4 11 30 14 107 15 55 0 110 4
121 8 30 13 -103 25 -192 18 -40 -3 -73 -2 -73 2 0 25 43 101 57 101 14 0 15
12 10 99 -8 115 -17 106 118 117 81 6 106 19 104 53 0 11 -4 9 -11 -6 -11 -22
-26 -27 -129 -38 -46 -6 -57 -4 -62 9 -4 9 -13 16 -21 16 -8 0 -18 5 -21 10
-9 15 57 40 105 40 34 0 42 4 50 25 5 14 26 41 46 59 30 27 35 38 32 67 -3 33
-4 34 -55 37 -35 2 -51 7 -48 15 10 27 -10 37 -64 30 -43 -5 -54 -10 -62 -29
-10 -29 -35 -31 -42 -4 -4 16 -14 20 -47 20 -54 0 -80 -15 -80 -45 0 -22 -4
-25 -35 -25 -31 0 -35 3 -35 25 0 21 -5 25 -30 25 -25 0 -30 -4 -30 -25 0 -21
-5 -25 -30 -25 -16 0 -30 5 -30 11 0 14 25 39 39 39 6 0 11 5 11 10 0 6 -11
10 -25 10 -14 0 -25 5 -25 10 0 6 11 10 25 10 l25 0 1 303 c1 166 1 319 -1
341 l-2 38 265 -7 c243 -7 264 -6 270 10 6 14 0 16 -46 15 -28 -2 -60 1 -70 5
-10 4 -51 5 -92 1 -47 -4 -76 -3 -80 4 -4 6 10 10 39 10 25 0 47 3 49 8 3 4
-47 8 -111 10 -100 2 -115 0 -99 -12 23 -18 22 -26 -5 -26 -34 0 -68 11 -68
22 0 5 4 7 8 4 4 -2 14 -1 22 5 11 6 2 9 -27 9 -28 0 -43 5 -43 13 0 6 0 156
1 332 1 176 1 339 1 363 0 35 2 42 16 38 16 -4 132 -10 160 -7 6 0 12 13 11
29 l-1 27 -7 -25 c-6 -22 -12 -25 -41 -22 -44 5 -51 9 -44 27 7 18 -25 32 -86
36 -40 4 -45 2 -48 -18 -5 -34 -42 -31 -42 2 0 28 -5 30 -64 39 -32 4 -39 2
-43 -14 -3 -11 -11 -20 -19 -20 -26 0 -64 20 -64 34 0 18 -38 32 -52 18 -13
-13 -58 -2 -58 14 0 11 -16 14 -64 14 -53 0 -65 3 -69 18 -4 16 -5 16 -6 0 0
-10 -8 -18 -16 -18 -17 0 -20 16 -4 25 5 4 9 19 8 33 -3 46 0 62 15 62 18 0
30 -33 21 -60 -6 -19 -2 -20 74 -20 l81 0 1 333 c0 182 2 345 4 360 l4 28 -57
-6 c-112 -12 -111 -11 -105 -54 4 -25 1 -41 -7 -46 -16 -10 -40 21 -40 52 0
20 -5 23 -37 22 -21 0 -60 -4 -88 -7 -41 -6 -50 -11 -51 -27 -4 -69 -3 -67
-19 -51 -8 8 -15 24 -15 35 0 23 -16 26 -107 15 l-53 -7 0 -37 c0 -20 -3 -40
-7 -43 -12 -13 -33 16 -33 45 0 19 -4 28 -12 26 -10 -4 -14 -68 -16 -268 -1
-146 -6 -267 -10 -271 -11 -11 -174 18 -183 33 -6 9 -11 10 -19 2 -8 -8 -36
-7 -98 2 -48 8 -91 13 -97 13 -26 -1 38 -18 105 -28 144 -21 300 -54 300 -62
0 -5 -10 -8 -22 -6 -18 2 -23 -3 -23 -23 -1 -20 -5 -24 -23 -22 -55 8 -97 29
-100 50 -4 24 -11 26 -112 42 -66 10 -86 2 -75 -27 6 -17 -11 -26 -34 -18 -12
3 -21 17 -23 33 -3 25 -8 28 -68 39 -75 14 -90 11 -90 -17 0 -17 -6 -20 -37
-20 -62 0 -83 10 -83 36 0 19 -7 24 -36 30 -29 5 -39 3 -46 -10 -5 -9 -14 -14
-19 -10 -6 3 -9 197 -9 516 1 510 0 527 -30 528 -3 0 -4 -201 -2 -447 4 -498
1 -553 -29 -553 -14 0 -19 -7 -19 -26 0 -26 -1 -27 -52 -20 -29 3 -61 6 -70 6
-12 0 -18 10 -20 32 -3 36 -9 38 -150 52 l-68 7 0 -31 c0 -29 -2 -31 -32 -28
-29 3 -33 7 -36 34 -3 35 -8 37 -119 50 l-63 7 0 -28 c0 -27 -1 -28 -46 -21
-26 3 -57 6 -70 6 -20 0 -24 5 -24 30 0 33 -4 35 -67 44 -38 5 -42 4 -45 -16
-3 -23 -7 -24 -80 -20 -22 2 -27 7 -30 35 -3 31 -4 32 -53 33 -79 2 -79 2 -65
19 10 12 10 15 0 15 -10 0 -10 3 0 15 9 10 9 15 1 15 -6 0 -11 7 -11 16 0 14
3 14 15 4 13 -10 15 -9 15 9 0 12 -4 19 -10 16 -5 -3 -10 -1 -10 4 0 6 5 11
11 11 8 0 8 4 1 13 -6 7 -9 66 -8 142 1 124 0 130 -19 130 -19 0 -20 -5 -16
-107 3 -94 1 -108 -13 -108 -9 0 -16 -5 -16 -11 0 -8 -14 -10 -45 -6 -25 4
-45 3 -45 -2 0 -5 -6 -11 -12 -14 -7 -2 -5 -3 4 -2 10 2 21 -1 24 -6 3 -5 22
-9 42 -9 24 0 32 3 24 9 -10 6 -8 10 8 14 17 4 20 2 15 -11 -10 -24 -6 -106 6
-110 5 -2 9 -14 9 -28 0 -26 -2 -27 -121 -44 -42 -6 -88 -8 -103 -4 -28 7 -34
31 -13 53 10 11 10 14 0 18 -7 3 -13 9 -13 14 0 6 5 7 11 3 8 -5 10 3 4 27
-12 52 -16 777 -5 784 16 10 12 42 -6 49 -11 4 -15 2 -11 -7 3 -8 -2 -19 -11
-26 -15 -11 -17 -48 -16 -384 1 -250 -1 -362 -8 -342 -24 77 -23 75 -66 58
-56 -21 -94 -55 -96 -83 0 -15 -8 -26 -18 -28 -16 -3 -17 21 -13 365 2 202 5
382 5 400 2 36 1 36 108 54 40 7 75 16 78 21 7 11 -40 8 -121 -8z m-198 -786
c-3 -7 -5 -2 -5 12 0 14 2 19 5 13 2 -7 2 -19 0 -25z m330 -164 c-6 -7 -70
-16 -117 -18 -14 0 -28 -4 -31 -9 -4 -6 -18 -5 -35 0 -27 10 -26 11 26 17 30
3 69 8 85 9 55 7 78 7 72 1z m2763 -65 c0 -5 -7 -9 -15 -9 -15 0 -20 12 -9 23
8 8 24 -1 24 -14z m-220 -9 c0 -5 -7 -10 -16 -10 -8 0 -12 5 -9 10 3 6 10 10
16 10 5 0 9 -4 9 -10z m-190 -20 c0 -5 -9 -10 -20 -10 -11 0 -20 5 -20 10 0 6
9 10 20 10 11 0 20 -4 20 -10z m-2488 -32 c-9 -9 -12 -7 -12 12 0 19 3 21 12
12 9 -9 9 -15 0 -24z m440 -108 c5 0 6 -4 3 -10 -9 -14 -22 -12 -22 3 0 6 -4
21 -7 32 -5 15 -4 15 5 -2 7 -13 16 -23 21 -23z m-731 -53 c-6 -6 -5 -17 4
-31 13 -19 12 -23 -5 -34 -26 -16 -33 -2 -24 53 5 38 9 44 21 34 9 -8 10 -16
4 -22z m458 17 c-9 -11 -15 -11 -25 -3 -18 15 -18 14 11 15 21 2 24 -1 14 -12z
m-1719 -625 c113 -5 217 -15 232 -21 20 -8 29 -19 34 -46 9 -48 -4 -334 -15
-345 -9 -9 -149 -50 -262 -78 -26 -7 -55 -9 -65 -4 -41 16 -197 8 -268 -14
-37 -11 -73 -21 -80 -21 -17 0 36 529 55 541 8 5 48 7 89 4 41 -3 167 -10 280
-16z m2725 -299 c27 -7 26 -8 -15 -9 -25 0 -52 4 -60 9 -11 7 -8 9 15 9 17 -1
44 -5 60 -9z m399 -10 c4 -5 -32 -11 -80 -15 -63 -6 -89 -4 -92 4 -2 6 -25 11
-50 12 -26 0 -67 4 -92 8 -25 4 34 5 130 3 96 -2 179 -8 184 -12z m1806 -15
c0 -9 -9 -15 -22 -15 -21 0 -21 0 -2 15 24 18 24 18 24 0z m-1280 -5 c0 -5
-25 -10 -55 -10 -30 0 -55 5 -55 10 0 6 25 10 55 10 30 0 55 -4 55 -10z m58 3
c-10 -2 -26 -2 -35 0 -10 3 -2 5 17 5 19 0 27 -2 18 -5z m787 -28 c6 -2 -16
-4 -47 -4 -32 -1 -58 3 -58 8 0 8 79 5 105 -4z m-1633 -11 l277 -7 -1 -43 c0
-38 -3 -44 -22 -44 -12 0 -27 5 -34 12 -9 9 -12 9 -12 -1 0 -7 9 -15 20 -18
19 -5 20 -14 20 -126 0 -66 3 -118 6 -114 3 3 5 55 5 116 -1 66 2 112 9 116 7
4 10 -128 10 -414 l0 -421 -37 -1 c-21 0 -32 -3 -25 -6 6 -2 12 -16 12 -30 l0
-26 86 7 c107 9 112 11 106 42 -4 23 -8 25 -35 20 -16 -3 -36 -6 -43 -6 -8 0
-14 -7 -14 -15 0 -8 -3 -15 -7 -15 -7 0 -11 777 -5 917 l2 51 373 -4 c204 -3
381 -7 393 -9 17 -4 21 -12 20 -42 -2 -38 -22 -56 -37 -32 -4 7 -11 10 -15 6
-4 -4 1 -13 11 -20 16 -12 17 -26 13 -123 -2 -60 -1 -98 3 -84 4 14 7 64 8
113 1 51 5 87 11 87 6 0 10 -49 10 -126 0 -111 -2 -125 -15 -114 -13 11 -15 2
-13 -71 2 -83 2 -84 5 -16 2 37 8 67 13 67 6 0 10 -95 10 -241 0 -232 -1 -241
-20 -246 -11 -3 -20 -14 -20 -24 0 -11 -10 -24 -22 -30 -16 -6 -4 -7 42 -2 36
4 81 6 100 5 80 -6 129 -5 205 4 l80 9 -70 5 c-67 5 -70 6 -73 33 -3 23 -8 27
-34 27 -21 0 -31 -6 -35 -20 -4 -15 -14 -20 -39 -20 -31 0 -34 3 -34 28 0 15
-5 33 -12 40 -9 9 -3 12 30 12 l42 0 0 346 c0 334 1 345 19 339 11 -3 21 0 24
8 3 9 -2 13 -17 13 -17 -1 -21 5 -23 32 l-1 32 202 0 c112 0 258 -3 325 -7
l122 -6 -3 -31 c-2 -26 -7 -31 -26 -29 -19 2 -20 1 -10 -11 7 -7 19 -11 26 -9
10 4 12 -61 12 -327 -1 -326 -1 -332 -21 -337 -17 -5 -20 -11 -15 -33 5 -25 2
-28 -32 -34 -60 -10 -73 -8 -71 12 4 45 0 51 -33 47 -18 -3 -54 -7 -80 -10
-43 -6 -48 -9 -48 -32 l0 -25 76 7 c99 9 91 -9 -8 -21 -53 -6 -64 -9 -39 -12
19 -2 79 1 133 7 122 13 171 14 163 2 -3 -6 3 -14 12 -20 17 -10 17 -10 1 -11
-10 0 -18 -5 -18 -11 0 -5 -5 -7 -11 -4 -21 13 -81 -7 -117 -39 -59 -53 -103
-58 -47 -6 14 13 25 27 25 32 0 10 -79 2 -168 -18 -35 -8 -79 -14 -98 -14 -65
0 -119 -36 -159 -105 -6 -9 -19 -16 -29 -14 -17 4 -16 7 9 37 15 18 41 40 59
49 17 9 26 18 20 20 -7 2 -193 -19 -415 -46 -222 -28 -660 -82 -974 -121 -313
-38 -605 -74 -648 -80 -42 -6 -81 -9 -86 -6 -13 9 3 71 19 73 33 6 879 105
1215 143 197 23 361 43 364 45 7 8 -24 6 -239 -15 -367 -35 -422 -40 -643 -60
-218 -20 -273 -23 -207 -11 29 5 36 11 38 34 l3 29 -68 -7 c-129 -11 -133 -13
-133 -44 0 -27 -2 -28 -65 -35 -75 -8 -85 -4 -85 30 0 23 -2 24 -37 18 -49 -9
-53 -11 -53 -34 0 -26 -15 -33 -56 -26 -32 7 -34 9 -34 46 0 38 2 40 30 40
l30 0 0 449 c0 303 3 452 10 456 7 4 8 11 2 18 -8 10 -10 78 -3 96 0 2 81 1
179 -3 97 -3 302 -9 454 -12z m1883 6 c-7 -12 -110 -12 -175 -1 -36 7 -22 9
68 10 73 1 111 -3 107 -9z m420 0 c-3 -5 -18 -10 -33 -9 l-27 1 25 8 c35 11
42 11 35 0z m-225 -16 c0 -2 -9 -4 -20 -4 -11 0 -20 4 -20 9 0 5 9 7 20 4 11
-3 20 -7 20 -9z m-170 -824 c0 -5 -4 -10 -10 -10 -5 0 -10 5 -10 10 0 6 5 10
10 10 6 0 10 -4 10 -10z m310 -36 c-56 -17 -64 -17 -25 1 17 8 39 14 50 14 11
0 0 -7 -25 -15z m-255 -4 c-3 -6 4 -10 16 -10 12 0 20 -3 16 -6 -3 -4 -18 -3
-34 0 -21 6 -24 9 -12 17 18 11 22 11 14 -1z m158 -65 c-10 -13 -22 -25 -27
-25 -5 0 1 11 14 25 30 32 36 32 13 0z m-3366 -59 c16 -13 41 -46 55 -73 29
-53 98 -270 98 -309 0 -20 4 -24 23 -19 12 2 93 9 180 15 86 6 180 15 209 20
28 6 191 28 362 50 171 22 317 42 324 45 7 3 12 25 12 60 0 48 3 56 18 53 13
-2 18 -15 20 -56 2 -28 5 -52 8 -52 11 0 661 80 697 86 l37 6 0 59 c0 46 3 59
15 59 12 0 15 -13 15 -55 l0 -55 33 0 c17 0 102 9 187 20 187 24 220 25 220 6
0 -18 -13 -20 -235 -46 -99 -12 -187 -23 -195 -25 -12 -4 -14 -19 -12 -75 3
-64 5 -70 25 -70 12 0 105 11 207 24 175 24 222 23 194 -3 -5 -5 -110 -23
-234 -40 -124 -18 -337 -50 -475 -72 -137 -22 -351 -56 -475 -75 -124 -19
-358 -57 -520 -83 -324 -54 -598 -75 -631 -49 -11 10 -18 40 -23 113 -14 211
-83 367 -186 423 -42 22 -52 24 -155 19 -162 -8 -253 -43 -328 -126 -59 -65
-88 -136 -117 -283 -8 -41 -16 -58 -27 -58 -14 0 -15 13 -10 93 12 207 96 381
212 437 31 15 91 27 192 40 212 26 245 25 280 -4z m3526 -23 c35 -38 50 -110
38 -179 -16 -87 -44 -124 -91 -124 -29 0 -57 30 -45 50 3 5 1 12 -5 15 -8 5
-7 11 1 21 9 11 8 14 -4 14 -11 0 -15 12 -15 53 0 28 3 54 7 57 4 3 17 19 30
35 13 17 21 22 18 13 -3 -10 -2 -20 3 -23 6 -4 10 1 10 11 0 13 3 14 15 4 12
-10 15 -9 15 5 0 11 5 15 15 11 19 -7 19 4 -1 33 -12 16 -23 22 -40 18 -13 -2
-21 0 -18 4 10 17 41 9 67 -18z m-5703 -37 c9 -26 7 -25 400 -116 153 -36 166
-38 183 -22 16 14 24 14 65 3 25 -6 49 -14 51 -17 3 -3 -1 -19 -8 -37 -6 -18
-16 -84 -21 -147 -13 -183 -40 -250 -101 -250 -31 0 -402 118 -484 155 -57 25
-100 70 -110 115 -8 38 -5 43 28 35 18 -5 30 -18 38 -42 6 -20 24 -43 43 -54
42 -26 372 -132 416 -133 30 -1 36 3 45 31 l11 33 22 -22 c12 -12 24 -19 28
-15 12 11 -5 37 -38 57 -64 39 -501 170 -568 170 l-37 0 -7 53 c-10 87 -7 202
6 215 18 18 27 15 38 -12z m5320 10 c0 -2 -13 -6 -29 -8 -17 -2 -28 -1 -25 4
5 8 54 12 54 4z m41 -48 c51 -99 7 -288 -66 -288 -26 0 -70 29 -44 30 9 0 22
7 29 15 11 13 10 14 -3 9 -25 -9 -56 13 -50 36 3 11 0 20 -6 20 -9 0 -9 5 0
21 8 15 8 24 0 32 -14 14 -14 47 -1 47 6 0 10 6 10 13 0 20 49 38 71 26 11 -5
19 -14 19 -19 0 -6 4 -10 9 -10 5 0 8 25 7 55 -1 30 0 55 1 55 1 0 12 -19 24
-42z m-397 -28 c53 -64 59 -181 13 -269 -27 -53 -62 -71 -102 -53 -28 13 -25
32 5 32 10 0 22 5 26 12 5 8 2 9 -10 5 -27 -10 -58 10 -51 34 4 13 2 19 -9 19
-18 0 -20 8 -7 29 6 9 6 22 0 34 -12 21 19 96 37 90 6 -2 17 3 24 12 18 21 29
19 23 -5 -3 -11 0 -20 6 -20 6 0 11 6 12 13 0 6 5 2 11 -10 6 -13 20 -23 31
-23 17 0 19 5 13 33 -9 45 -38 81 -72 88 l-29 7 27 1 c18 1 34 -9 52 -29z
m-4024 -121 c147 -13 180 -21 180 -44 0 -12 -16 -15 -92 -15 -102 0 -297 25
-311 39 -5 5 -4 17 2 29 9 17 16 19 48 11 21 -4 99 -13 173 -20z m-180 -58
c19 -6 60 -13 91 -16 48 -5 58 -10 68 -32 12 -25 13 -25 106 -21 l95 4 0 -54
0 -55 -147 7 c-82 3 -177 12 -213 19 -74 15 -77 20 -65 114 4 36 11 52 18 49
7 -2 28 -9 47 -15z m4795 -97 c13 -5 14 -8 3 -15 -18 -12 -125 -12 -112 0 16
16 83 25 109 15z m-4242 -21 c-7 -2 -21 -2 -30 0 -10 3 -4 5 12 5 17 0 24 -2
18 -5z m-65 -10 c-10 -2 -26 -2 -35 0 -10 3 -2 5 17 5 19 0 27 -2 18 -5z m-61
-9 c-3 -3 -12 -4 -19 -1 -8 3 -5 6 6 6 11 1 17 -2 13 -5z m286 -71 c-3 -27 -8
-51 -12 -55 -10 -11 -288 -49 -306 -42 -11 4 -15 21 -15 59 l0 52 163 20 c89
10 165 18 168 16 4 -1 4 -24 2 -50z m449 47 c50 -14 104 -80 125 -149 53 -182
-89 -384 -239 -339 -85 25 -138 114 -138 229 0 137 92 260 200 268 8 0 32 -4
52 -9z m3287 -9 c19 -12 -75 -31 -114 -23 -29 5 -28 6 20 18 64 15 77 16 94 5z
m-1240 -26 c-3 -2 -106 -20 -230 -39 -123 -19 -268 -42 -323 -51 -54 -9 -101
-14 -104 -11 -9 9 16 14 303 59 259 41 365 54 354 42z m858 -51 c-9 -10 -128
-33 -169 -34 -57 0 -45 15 20 27 66 12 158 16 149 7z m-307 -54 c8 -5 11 -10
5 -10 -5 0 -191 -32 -412 -71 -291 -52 -409 -69 -424 -63 -16 8 23 17 167 43
104 18 286 50 404 71 245 44 240 43 260 30z m-1311 -14 c-2 -3 -92 -19 -199
-35 -107 -17 -218 -35 -247 -39 -29 -5 -57 -6 -63 -2 -7 4 66 19 162 34 95 15
193 31 218 36 49 9 136 13 129 6z m-649 -105 c-14 -7 -185 -35 -202 -32 -5 1
-8 4 -8 9 -1 4 27 12 62 18 76 14 170 17 148 5z m1055 -41 c17 -6 13 -9 -20
-14 -22 -4 -60 -11 -85 -16 -240 -50 -773 -139 -799 -134 -44 9 -39 20 12 27
43 5 720 122 792 137 52 10 75 10 100 0z m-2850 -162 c-42 -11 -191 -22 -183
-14 10 11 160 33 188 27 25 -4 25 -5 -5 -13z m1855 -17 l25 -7 -25 -7 c-21 -5
-314 -37 -343 -37 -6 0 -7 3 -3 8 10 10 231 49 281 50 22 0 51 -3 65 -7z
m-446 -76 c11 -8 17 -17 15 -19 -8 -9 -179 -33 -179 -25 0 12 54 44 85 50 48
10 59 9 79 -6z"/>
<path d="M3278 2123 c17 -2 47 -2 65 0 17 2 3 4 -33 4 -36 0 -50 -2 -32 -4z"/>
<path d="M3521 2116 c2 -2 118 -6 258 -9 146 -3 248 -1 240 4 -13 8 -507 13
-498 5z"/>
<path d="M5100 2102 c0 -4 16 -6 35 -4 19 2 35 6 35 8 0 2 -16 4 -35 4 -19 0
-35 -4 -35 -8z"/>
<path d="M5428 2093 c6 -2 18 -2 25 0 6 3 1 5 -13 5 -14 0 -19 -2 -12 -5z"/>
<path d="M5558 2093 c7 -3 16 -2 19 1 4 3 -2 6 -13 5 -11 0 -14 -3 -6 -6z"/>
<path d="M5608 2093 c12 -2 30 -2 40 0 9 3 -1 5 -23 4 -22 0 -30 -2 -17 -4z"/>
<path d="M3217 2076 c-14 -11 -17 -31 -17 -135 0 -66 3 -121 8 -121 4 0 6 50
4 111 -3 94 -1 114 14 130 21 23 16 32 -9 15z"/>
<path d="M4149 2068 c-11 -11 -13 -35 -8 -123 l5 -110 2 103 c1 57 7 112 12
123 12 22 10 24 -11 7z"/>
<path d="M5079 2018 c-5 -42 -4 -71 2 -119 5 -48 6 -43 8 39 0 50 -1 92 -4 92
-3 0 -6 -6 -6 -12z"/>
<path d="M5673 1945 c0 -44 2 -61 4 -37 2 23 2 59 0 80 -2 20 -4 1 -4 -43z"/>
<path d="M3474 1870 c0 -69 1 -97 3 -62 2 34 2 90 0 125 -2 34 -3 6 -3 -63z"/>
<path d="M4381 1888 c-1 -66 3 -108 9 -108 12 0 12 166 0 195 -6 13 -9 -18 -9
-87z"/>
<path d="M5266 1912 c-4 -35 -5 -66 -2 -69 13 -13 17 7 14 68 l-3 64 -9 -63z"/>
<path d="M5673 1760 c0 -41 2 -58 4 -37 2 20 2 54 0 75 -2 20 -4 3 -4 -38z"/>
<path d="M5077 1734 c2 -103 13 -108 13 -6 0 45 -3 82 -7 82 -5 0 -7 -34 -6
-76z"/>
<path d="M4054 1705 c0 -55 1 -76 3 -47 2 29 2 74 0 100 -2 26 -3 2 -3 -53z"/>
<path d="M4144 1705 c0 -49 1 -71 3 -48 2 23 2 64 0 90 -2 26 -3 8 -3 -42z"/>
<path d="M3200 1670 c0 -60 4 -100 10 -100 6 0 10 40 10 100 0 60 -4 100 -10
100 -6 0 -10 -40 -10 -100z"/>
<path d="M5674 1540 c0 -58 1 -81 3 -52 2 28 2 76 0 105 -2 28 -3 5 -3 -53z"/>
<path d="M4380 1518 c0 -64 3 -88 10 -78 13 20 13 170 0 170 -6 0 -10 -37 -10
-92z"/>
<path d="M5267 1593 c-4 -3 -6 -27 -6 -52 l2 -46 7 50 c8 53 7 59 -3 48z"/>
<path d="M4884 1480 c0 -63 1 -89 3 -57 2 31 2 83 0 115 -2 31 -3 5 -3 -58z"/>
<path d="M5084 1485 c0 -60 1 -84 3 -52 2 32 2 81 0 110 -2 29 -3 3 -3 -58z"/>
<path d="M4140 1430 c0 -79 2 -141 6 -138 7 8 8 267 0 275 -3 4 -6 -58 -6
-137z"/>
<path d="M3474 1455 c0 -60 1 -84 3 -52 2 32 2 81 0 110 -2 29 -3 3 -3 -58z"/>
<path d="M4054 1420 c0 -74 1 -105 3 -67 2 37 2 97 0 135 -2 37 -3 6 -3 -68z"/>
<path d="M5477 1523 c-4 -3 -7 -28 -7 -55 l0 -48 73 0 c93 0 108 10 100 68
l-6 42 -77 0 c-42 0 -80 -3 -83 -7z m51 -25 c-6 -18 -28 -21 -28 -4 0 9 7 16
16 16 9 0 14 -5 12 -12z m64 -15 c-6 -2 -10 -9 -6 -14 3 -5 0 -9 -5 -9 -12 0
-14 13 -4 23 3 4 11 7 17 6 6 0 5 -3 -2 -6z"/>
<path d="M3200 1355 c0 -92 4 -154 9 -151 12 8 11 295 0 302 -5 3 -9 -65 -9
-151z"/>
<path d="M4705 1471 l-70 -6 -3 -64 -3 -63 88 7 c115 9 125 15 122 68 -2 23
-5 48 -7 55 -4 12 -8 12 -127 3z m-5 -36 c0 -16 -35 -21 -44 -6 -8 12 4 21 26
21 10 0 18 -7 18 -15z m85 -25 c0 -8 -7 -16 -15 -18 -10 -2 -16 5 -16 18 0 13
6 20 16 18 8 -2 15 -10 15 -18z m-80 -20 c-3 -5 -12 -10 -18 -10 -7 0 -6 4 3
10 19 12 23 12 15 0z"/>
<path d="M3887 1390 c-53 -3 -102 -11 -107 -16 -7 -7 10 -8 47 -3 32 4 82 8
111 8 l52 1 -1 -32 -1 -33 -7 30 c-7 33 -15 26 -26 -23 -8 -37 -19 -41 -117
-45 -37 -1 -68 -6 -68 -10 0 -8 137 -2 208 9 l33 5 -3 56 c-2 31 -7 57 -13 58
-5 1 -54 -1 -108 -5z"/>
<path d="M4247 1393 c-3 -5 6 -8 19 -8 13 0 24 3 24 8 0 4 -9 7 -19 7 -11 0
-22 -3 -24 -7z"/>
<path d="M3771 1334 c0 -11 3 -14 6 -6 3 7 2 16 -1 19 -3 4 -6 -2 -5 -13z"/>
<path d="M5014 1331 c4 -5 0 -11 -6 -14 -7 -2 -10 -7 -7 -11 10 -10 39 5 39
20 0 8 -7 14 -16 14 -8 0 -13 -4 -10 -9z"/>
<path d="M5233 1333 c-7 -2 -13 -16 -13 -29 0 -21 5 -24 34 -24 68 0 96 11 96
36 0 22 -4 24 -52 23 -29 0 -59 -3 -65 -6z"/>
<path d="M3340 1320 c0 -5 5 -10 10 -10 6 0 10 5 10 10 0 6 -4 10 -10 10 -5 0
-10 -4 -10 -10z"/>
<path d="M4653 1269 c-76 -10 -83 -13 -83 -46 0 -24 2 -25 38 -20 20 3 65 9
98 13 l61 6 -10 29 c-6 16 -18 28 -27 28 -8 -1 -43 -5 -77 -10z m64 -25 c-3
-3 -12 -4 -19 -1 -8 3 -5 6 6 6 11 1 17 -2 13 -5z"/>
<path d="M5298 1263 c12 -2 32 -2 45 0 12 2 2 4 -23 4 -25 0 -35 -2 -22 -4z"/>
<path d="M4475 1244 c-11 -2 -46 -6 -77 -9 -54 -6 -58 -8 -58 -32 l0 -25 78 7
c89 9 92 10 92 35 0 22 -7 27 -35 24z"/>
<path d="M4813 1203 c9 -2 23 -2 30 0 6 3 -1 5 -18 5 -16 0 -22 -2 -12 -5z"/>
<path d="M4718 1193 c12 -2 30 -2 40 0 9 3 -1 5 -23 4 -22 0 -30 -2 -17 -4z"/>
<path d="M3762 1178 c-60 -9 -63 -11 -60 -36 2 -15 8 -27 13 -27 6 1 54 5 108
9 80 7 97 11 93 23 -3 8 -6 21 -6 29 0 16 -49 17 -148 2z"/>
<path d="M3978 1143 c7 -3 16 -2 19 1 4 3 -2 6 -13 5 -11 0 -14 -3 -6 -6z"/>
<path d="M4225 895 c-176 -24 -331 -44 -344 -46 -24 -4 -24 -6 -22 -79 1 -41
4 -77 6 -81 3 -3 60 3 127 13 68 11 228 34 357 53 128 19 235 36 237 38 3 2 5
31 7 63 1 32 6 65 10 72 12 18 -16 15 -378 -33z"/>
<path d="M3690 824 c-52 -8 -201 -30 -330 -49 -178 -27 -542 -64 -632 -65 -5
0 -8 -40 -8 -88 l0 -89 53 4 c28 3 97 7 152 11 l100 7 5 80 c4 64 8 80 22 83
14 3 18 -10 24 -78 7 -82 7 -82 33 -77 25 5 539 87 649 104 l54 8 4 74 c2 45
9 78 16 83 18 11 -29 8 -142 -8z"/>
<path d="M5987 1014 c-4 -4 -7 -18 -7 -31 0 -28 23 -27 28 1 4 20 -11 40 -21
30z"/>
<path d="M355 1010 c-3 -5 3 -10 14 -10 17 0 21 -6 21 -35 0 -27 5 -38 23 -45
36 -17 511 -138 520 -133 4 2 7 17 7 34 0 34 5 35 49 8 36 -22 54 -18 30 7
-23 23 -130 57 -390 123 -247 64 -264 67 -274 51z"/>
<path d="M5624 947 c-9 -24 6 -44 18 -22 7 11 6 21 -1 28 -7 7 -12 6 -17 -6z"/>
<path d="M5235 880 c-7 -21 0 -40 16 -40 5 0 9 14 9 30 0 34 -15 40 -25 10z"/>
<path d="M1168 796 c-17 -39 3 -78 39 -74 35 4 50 29 37 65 -13 39 -59 45 -76
9z"/>
<path d="M2183 659 c-48 -23 -97 -90 -114 -153 -16 -60 -6 -156 22 -207 36
-64 69 -84 139 -84 63 0 99 18 128 65 l16 25 -30 -26 c-60 -54 -107 -63 -160
-30 -46 28 -74 94 -74 172 0 121 69 216 165 227 43 4 48 3 87 -39 42 -43 42
-43 22 -9 -44 76 -121 99 -201 59z"/>
<path d="M2296 603 c-9 -22 10 -41 25 -26 13 13 5 43 -10 43 -5 0 -12 -8 -15
-17z"/>
<path d="M2213 584 c-7 -18 11 -39 26 -30 17 11 13 46 -4 46 -9 0 -18 -7 -22
-16z"/>
<path d="M2356 543 c-9 -22 10 -41 25 -26 13 13 5 43 -10 43 -5 0 -12 -8 -15
-17z"/>
<path d="M2154 506 c-8 -21 3 -49 16 -41 5 3 10 15 10 25 0 25 -18 36 -26 16z"/>
<path d="M2377 453 c-13 -12 -7 -43 7 -43 16 0 25 19 18 38 -5 13 -15 16 -25
5z"/>
<path d="M2143 384 c-8 -21 13 -42 28 -27 13 13 5 43 -11 43 -6 0 -13 -7 -17
-16z"/>
<path d="M2340 344 c-9 -10 -10 -18 -2 -26 12 -12 32 -2 32 17 0 21 -16 26
-30 9z"/>
<path d="M2190 294 c0 -31 23 -28 28 4 2 15 -2 22 -12 22 -11 0 -16 -9 -16
-26z"/>
<path d="M2263 284 c-9 -23 11 -38 26 -20 13 16 7 36 -10 36 -5 0 -12 -7 -16
-16z"/>
<path d="M2945 4371 c-3 -5 -1 -12 5 -16 5 -3 10 1 10 9 0 18 -6 21 -15 7z"/>
<path d="M2920 4322 c-13 -2 -15 -23 -12 -130 3 -112 5 -128 20 -128 15 0 17
11 14 91 -4 161 -6 171 -22 167z"/>
<path d="M2157 4303 c-2 -5 -4 -224 -5 -488 -1 -451 -2 -480 -19 -487 -13 -5
-9 -7 12 -5 l30 2 3 493 c2 445 -1 521 -21 485z"/>
<path d="M2040 4280 l-25 -8 25 0 c14 0 34 3 45 8 l20 9 -20 -1 c-11 0 -31 -4
-45 -8z"/>
<path d="M2190 4270 c0 -5 5 -10 10 -10 6 0 10 5 10 10 0 6 -4 10 -10 10 -5 0
-10 -4 -10 -10z"/>
<path d="M1926 4259 c-22 -5 -42 -12 -45 -16 -8 -8 86 6 113 17 20 8 20 9 -4
8 -14 0 -43 -4 -64 -9z"/>
<path d="M3464 4135 c0 -71 1 -99 3 -62 2 37 2 96 0 130 -2 34 -3 4 -3 -68z"/>
<path d="M4185 4241 c5 -9 129 -41 156 -41 28 0 -4 13 -76 31 -90 22 -88 22
-80 10z"/>
<path d="M4010 4233 c0 -5 9 -18 20 -28 14 -13 20 -34 23 -84 l3 -66 2 71 c2
64 0 73 -23 94 -14 13 -25 19 -25 13z"/>
<path d="M1697 4210 c-86 -17 -106 -25 -95 -35 8 -8 190 33 202 45 13 13 2 12
-107 -10z"/>
<path d="M4160 4191 c-8 -6 -17 -8 -20 -6 -3 2 -3 -54 0 -123 l5 -127 3 115
c2 88 6 118 19 132 18 20 16 23 -7 9z"/>
<path d="M4425 4183 c13 -12 379 -97 395 -91 7 2 -70 23 -171 47 -231 55 -236
56 -224 44z"/>
<path d="M1453 4166 c-52 -11 -80 -26 -50 -26 31 0 117 22 123 31 6 11 -4 10
-73 -5z"/>
<path d="M3482 4140 c0 -14 2 -19 5 -12 2 6 2 18 0 25 -3 6 -5 1 -5 -13z"/>
<path d="M1598 4100 c-2 -28 0 -40 9 -40 8 0 13 14 13 40 0 22 -4 40 -9 40 -5
0 -11 -18 -13 -40z"/>
<path d="M1864 4005 c0 -55 1 -76 3 -47 2 29 2 74 0 100 -2 26 -3 2 -3 -53z"/>
<path d="M1381 4063 c-7 -8 -11 -16 -8 -19 2 -2 10 2 17 11 17 20 9 27 -9 8z"/>
<path d="M3190 3974 c0 -66 4 -103 10 -99 11 7 9 205 -2 205 -5 0 -8 -48 -8
-106z"/>
<path d="M1570 3945 c0 -57 4 -95 10 -95 6 0 10 38 10 95 0 57 -4 95 -10 95
-6 0 -10 -38 -10 -95z"/>
<path d="M2925 4033 c-18 -3 -20 -12 -20 -92 0 -82 1 -87 20 -83 18 3 20 11
20 93 0 49 0 88 0 88 0 -1 -9 -4 -20 -6z"/>
<path d="M4373 3995 c0 -22 2 -30 4 -17 2 12 2 30 0 40 -3 9 -5 -1 -4 -23z"/>
<path d="M4046 3983 c-6 -14 -5 -15 5 -6 7 7 10 15 7 18 -3 3 -9 -2 -12 -12z"/>
<path d="M4049 3918 c-6 -22 -5 -179 2 -184 5 -3 9 35 9 90 0 53 -2 96 -5 96
-3 0 -5 -1 -6 -2z"/>
<path d="M4144 3795 c0 -55 1 -76 3 -47 2 29 2 74 0 100 -2 26 -3 2 -3 -53z"/>
<path d="M6230 3840 c0 -19 3 -21 12 -12 9 9 9 15 0 24 -9 9 -12 7 -12 -12z"/>
<path d="M1853 3785 c2 -36 6 -65 10 -65 4 0 7 2 7 5 0 3 0 32 0 65 0 35 -4
60 -11 60 -6 0 -9 -24 -6 -65z"/>
<path d="M2281 3810 c0 -32 2 -40 9 -29 5 9 6 28 0 45 -8 27 -8 26 -9 -16z"/>
<path d="M2312 3790 c0 -14 2 -19 5 -12 2 6 2 18 0 25 -3 6 -5 1 -5 -13z"/>
<path d="M5618 3803 c7 -3 16 -2 19 1 4 3 -2 6 -13 5 -11 0 -14 -3 -6 -6z"/>
<path d="M1570 3735 c0 -37 4 -65 10 -65 6 0 10 28 10 65 0 37 -4 65 -10 65
-6 0 -10 -28 -10 -65z"/>
<path d="M3190 3645 c0 -96 4 -154 9 -150 13 7 13 293 0 300 -5 4 -9 -55 -9
-150z"/>
<path d="M3464 3695 c0 -60 1 -84 3 -52 2 32 2 81 0 110 -2 29 -3 3 -3 -58z"/>
<path d="M4878 3703 c5 -140 9 -146 11 -15 0 61 -3 112 -7 112 -4 0 -6 -44 -4
-97z"/>
<path d="M5670 3790 c34 -11 60 -11 35 0 -11 5 -29 8 -40 8 -16 0 -15 -2 5 -8z"/>
<path d="M6227 3783 c-10 -10 -8 -53 2 -53 8 0 20 32 21 53 0 9 -14 9 -23 0z"/>
<path d="M1369 3778 c-6 -18 -4 -100 2 -104 5 -3 9 20 9 50 0 31 -2 56 -5 56
-3 0 -5 -1 -6 -2z"/>
<path d="M5765 3772 c6 -6 53 -19 105 -30 141 -31 166 -35 158 -27 -3 3 -55
17 -115 31 -59 13 -119 26 -133 30 -16 3 -21 2 -15 -4z"/>
<path d="M5568 3757 c6 -7 12 -35 15 -62 3 -48 3 -48 5 13 2 51 -1 62 -14 62
-12 0 -14 -3 -6 -13z"/>
<path d="M3481 3744 c0 -11 3 -14 6 -6 3 7 2 16 -1 19 -3 4 -6 -2 -5 -13z"/>
<path d="M2281 3718 c0 -18 3 -26 6 -18 3 8 9 17 13 20 4 3 2 11 -6 18 -12 11
-14 8 -13 -20z"/>
<path d="M6255 3704 c-14 -21 -19 -24 -26 -13 -15 23 -59 -34 -59 -77 0 -19 5
-34 10 -34 6 0 10 5 10 11 0 6 15 28 33 49 68 77 76 90 58 90 -5 0 -16 -12
-26 -26z"/>
<path d="M6058 3669 c7 -8 12 -45 13 -98 1 -97 6 -90 11 15 3 64 1 73 -17 84
-16 10 -18 10 -7 -1z"/>
<path d="M1860 3669 c-5 -81 -3 -195 4 -199 9 -5 9 190 0 199 -2 2 -4 2 -4 0z"/>
<path d="M2470 3651 c0 -28 19 -36 38 -17 15 15 15 18 2 26 -24 15 -40 12 -40
-9z"/>
<path d="M1360 3635 c0 -14 5 -25 10 -25 6 0 10 11 10 25 0 14 -4 25 -10 25
-5 0 -10 -11 -10 -25z"/>
<path d="M4040 3526 c0 -84 4 -136 10 -136 6 0 10 50 10 129 0 76 -4 132 -10
136 -6 4 -10 -42 -10 -129z"/>
<path d="M4374 3545 c0 -60 1 -84 3 -52 2 32 2 81 0 110 -2 29 -3 3 -3 -58z"/>
<path d="M4144 3495 c0 -82 2 -115 3 -72 2 43 2 110 0 150 -1 40 -3 5 -3 -78z"/>
<path d="M5735 3621 c-7 -24 -4 -121 5 -126 4 -2 8 29 8 70 2 76 -2 91 -13 56z"/>
<path d="M5582 3600 c0 -19 2 -27 5 -17 2 9 2 25 0 35 -3 9 -5 1 -5 -18z"/>
<path d="M1570 3531 c0 -50 5 -93 10 -96 6 -4 10 28 10 89 0 57 -4 96 -10 96
-6 0 -10 -36 -10 -89z"/>
<path d="M3396 3571 c-4 -7 -5 -15 -2 -18 9 -9 19 4 14 18 -4 11 -6 11 -12 0z"/>
<path d="M1369 3543 c-3 -49 1 -257 6 -261 3 -3 5 58 5 136 0 78 -2 142 -5
142 -3 0 -6 -8 -6 -17z"/>
<path d="M3767 3553 c-11 -10 -8 -121 3 -128 11 -7 181 -34 213 -35 15 0 17
10 17 70 0 39 -3 70 -7 70 -5 0 -51 7 -103 15 -110 17 -114 17 -123 8z m71
-36 c3 -12 -3 -17 -22 -17 -25 0 -35 18 -19 34 12 12 38 2 41 -17z m90 -55 c2
-7 -3 -12 -12 -12 -9 0 -16 7 -16 16 0 17 22 14 28 -4z"/>
<path d="M4403 3490 c0 -25 2 -35 4 -22 2 12 2 32 0 45 -2 12 -4 2 -4 -23z"/>
<path d="M4878 3388 c-2 -68 0 -127 4 -133 4 -5 8 50 8 123 0 73 -2 132 -4
132 -2 0 -6 -55 -8 -122z"/>
<path d="M5583 3435 c0 -27 2 -38 4 -22 2 15 2 37 0 50 -2 12 -4 0 -4 -28z"/>
<path d="M6070 3375 c0 -43 3 -76 6 -72 7 7 6 138 -1 145 -3 3 -5 -30 -5 -73z"/>
<path d="M4260 3423 c0 -14 2 -15 9 -4 5 7 14 10 20 7 6 -4 11 -2 11 3 0 6 -9
11 -20 11 -12 0 -20 -7 -20 -17z"/>
<path d="M4640 3357 l0 -63 93 -16 c50 -9 95 -14 100 -11 4 2 7 31 7 63 0 67
8 62 -110 80 -95 15 -90 18 -90 -53z m65 28 c0 -5 -10 -11 -22 -13 -16 -2 -23
2 -23 13 0 11 7 15 23 13 12 -2 22 -7 22 -13z m-5 -45 c-19 -12 -30 -12 -30
-1 0 10 31 20 40 14 2 -2 -2 -8 -10 -13z m75 -8 c1 -12 -2 -22 -7 -22 -4 0 -8
4 -8 9 0 5 -3 17 -7 27 -4 11 -2 15 7 12 7 -2 14 -14 15 -26z"/>
<path d="M1597 3330 c-3 -11 -1 -20 4 -20 5 0 9 9 9 20 0 11 -2 20 -4 20 -2 0
-6 -9 -9 -20z"/>
<path d="M5730 3265 c0 -43 2 -76 5 -73 7 7 8 138 1 145 -3 3 -6 -29 -6 -72z"/>
<path d="M5581 3314 c0 -11 3 -14 6 -6 3 7 2 16 -1 19 -3 4 -6 -2 -5 -13z"/>
<path d="M2053 3313 c9 -2 23 -2 30 0 6 3 -1 5 -18 5 -16 0 -22 -2 -12 -5z"/>
<path d="M5583 3230 c0 -36 2 -50 4 -32 2 17 2 47 0 65 -2 17 -4 3 -4 -33z"/>
<path d="M1618 3263 c7 -3 16 -2 19 1 4 3 -2 6 -13 5 -11 0 -14 -3 -6 -6z"/>
<path d="M3256 3250 c12 -5 59 -11 105 -14 l84 -6 -85 15 c-47 8 -94 14 -105
14 -19 0 -19 -1 1 -9z"/>
<path d="M2630 3230 c0 -5 5 -10 10 -10 6 0 10 5 10 10 0 6 -4 10 -10 10 -5 0
-10 -4 -10 -10z"/>
<path d="M6074 3140 c0 -58 1 -81 3 -52 2 28 2 76 0 105 -2 28 -3 5 -3 -53z"/>
<path d="M3215 3202 c-19 -16 -20 -26 -15 -137 l6 -120 2 119 c2 100 5 121 19
132 10 7 16 15 13 17 -3 3 -14 -2 -25 -11z"/>
<path d="M3515 3210 c40 -16 497 -69 484 -56 -7 7 -440 66 -478 65 -23 0 -24
-1 -6 -9z"/>
<path d="M2000 3144 l-85 -13 85 5 c47 3 89 10 95 15 6 6 6 9 0 8 -6 -1 -48
-8 -95 -15z"/>
<path d="M5900 3116 c0 -25 4 -47 8 -50 5 -3 39 -8 76 -12 l67 -7 -3 43 c-4
54 -28 68 -28 16 0 -43 -5 -46 -58 -39 -41 5 -42 7 -42 44 0 21 -4 41 -10 44
-6 4 -10 -11 -10 -39z"/>
<path d="M1420 3140 c-23 -7 -23 -8 -3 -9 12 -1 25 4 28 9 3 6 5 10 3 9 -2 -1
-14 -5 -28 -9z"/>
<path d="M1725 3120 l-50 -7 45 -1 c25 0 54 3 65 8 23 10 12 10 -60 0z"/>
<path d="M1638 3103 c6 -2 18 -2 25 0 6 3 1 5 -13 5 -14 0 -19 -2 -12 -5z"/>
<path d="M3464 2970 c0 -74 1 -105 3 -67 2 37 2 97 0 135 -2 37 -3 6 -3 -68z"/>
<path d="M4420 3091 c0 -4 60 -16 133 -25 72 -10 159 -21 193 -27 75 -11 107
-12 100 0 -5 7 -64 16 -186 27 -25 2 -84 11 -133 19 -102 17 -107 18 -107 6z"/>
<path d="M1448 3083 c7 -3 16 -2 19 1 4 3 -2 6 -13 5 -11 0 -14 -3 -6 -6z"/>
<path d="M5758 3033 c7 -3 16 -2 19 1 4 3 -2 6 -13 5 -11 0 -14 -3 -6 -6z"/>
<path d="M5983 3003 c9 -2 25 -2 35 0 9 3 1 5 -18 5 -19 0 -27 -2 -17 -5z"/>
<path d="M1863 2930 c0 -41 2 -58 4 -37 2 20 2 54 0 75 -2 20 -4 3 -4 -38z"/>
<path d="M6048 2993 c6 -2 18 -2 25 0 6 3 1 5 -13 5 -14 0 -19 -2 -12 -5z"/>
<path d="M5104 2968 c-3 -4 15 -8 40 -8 25 0 46 2 46 4 0 8 -82 11 -86 4z"/>
<path d="M1573 2915 c0 -33 2 -45 4 -27 2 18 2 45 0 60 -2 15 -4 0 -4 -33z"/>
<path d="M5321 2941 c35 -11 258 -35 284 -29 17 3 -40 11 -263 33 -35 4 -41 3
-21 -4z"/>
<path d="M5077 2923 c-4 -3 -6 -47 -5 -97 l2 -91 5 95 c7 105 7 103 -2 93z"/>
<path d="M4382 2842 c1 -45 6 -82 10 -82 8 0 -1 150 -9 160 -2 2 -3 -33 -1
-78z"/>
<path d="M5930 2889 c0 -5 11 -9 24 -9 13 0 39 -3 57 -6 23 -5 31 -3 24 3 -13
13 -105 23 -105 12z"/>
<path d="M3204 2790 c0 -58 1 -81 3 -52 2 28 2 76 0 105 -2 28 -3 5 -3 -53z"/>
<path d="M6090 2871 c0 -6 6 -11 13 -11 20 0 238 -29 270 -36 15 -3 27 -2 27
3 0 5 -62 17 -137 27 -76 9 -146 20 -155 22 -10 3 -18 1 -18 -5z"/>
<path d="M5915 2859 c-4 -6 -5 -12 -2 -15 2 -3 7 2 10 11 7 17 1 20 -8 4z"/>
<path d="M4054 2725 c0 -55 1 -76 3 -47 2 29 2 74 0 100 -2 26 -3 2 -3 -53z"/>
<path d="M5266 2794 c-7 -18 -8 -150 -1 -143 6 7 18 159 12 159 -3 0 -8 -7
-11 -16z"/>
<path d="M4144 2710 c0 -52 1 -74 3 -47 2 26 2 68 0 95 -2 26 -3 4 -3 -48z"/>
<path d="M6060 2695 c0 -54 4 -85 11 -85 7 0 9 29 7 85 -2 47 -6 85 -10 85 -5
0 -8 -38 -8 -85z"/>
<path d="M6403 2690 c0 -30 2 -43 4 -27 2 15 2 39 0 55 -2 15 -4 2 -4 -28z"/>
<path d="M4884 2645 c0 -49 1 -71 3 -48 2 23 2 64 0 90 -2 26 -3 8 -3 -42z"/>
<path d="M790 2683 c-158 -7 -304 -23 -314 -34 -8 -9 8 -10 67 -5 160 14 450
25 667 27 129 0 214 4 200 9 -24 8 -479 10 -620 3z"/>
<path d="M3464 2545 c0 -60 1 -84 3 -52 2 32 2 81 0 110 -2 29 -3 3 -3 -58z"/>
<path d="M5072 2620 c0 -14 2 -19 5 -12 2 6 2 18 0 25 -3 6 -5 1 -5 -13z"/>
<path d="M5673 2560 c0 -41 2 -58 4 -37 2 20 2 54 0 75 -2 20 -4 3 -4 -38z"/>
<path d="M3204 2475 c0 -82 2 -115 3 -72 2 43 2 110 0 150 -1 40 -3 5 -3 -78z"/>
<path d="M4040 2589 c0 -11 4 -18 10 -14 5 3 7 12 3 20 -7 21 -13 19 -13 -6z"/>
<path d="M1601 2569 c-7 -19 -15 -91 -18 -161 l-6 -126 57 -7 c73 -9 69 -29
-6 -33 l-56 -3 -6 -92 c-3 -51 -7 -146 -9 -212 l-2 -120 33 3 c41 4 42 -15 2
-30 -63 -22 -63 -78 1 -78 32 0 40 5 51 27 11 24 21 29 71 35 76 10 97 22 97
57 0 22 6 30 23 34 12 3 146 29 297 58 151 30 265 55 253 57 -27 4 -28 14 -9
342 7 118 12 216 11 217 0 1 -30 5 -65 7 -295 24 -586 48 -641 53 l-66 6 -12
-34z m196 -90 c36 -12 47 -46 37 -113 -12 -75 -17 -79 -96 -74 -44 4 -74 11
-79 19 -16 25 -11 146 7 163 18 19 86 21 131 5z"/>
<path d="M6403 2515 c0 -33 2 -45 4 -27 2 18 2 45 0 60 -2 15 -4 0 -4 -33z"/>
<path d="M1542 2540 c0 -14 2 -19 5 -12 2 6 2 18 0 25 -3 6 -5 1 -5 -13z"/>
<path d="M4048 2468 c5 -168 8 -185 10 -45 1 75 -1 137 -5 137 -5 0 -7 -42 -5
-92z"/>
<path d="M4140 2413 c0 -80 3 -144 6 -141 11 12 16 288 5 288 -7 0 -11 -47
-11 -147z"/>
<path d="M2473 2523 c9 -2 25 -2 35 0 9 3 1 5 -18 5 -19 0 -27 -2 -17 -5z"/>
<path d="M4380 2510 c0 -5 5 -10 11 -10 5 0 7 5 4 10 -3 6 -8 10 -11 10 -2 0
-4 -4 -4 -10z"/>
<path d="M4878 2493 c-2 -5 -1 -62 2 -128 l6 -120 2 128 c2 115 0 142 -10 120z"/>
<path d="M5263 2420 c0 -47 2 -66 4 -42 2 23 2 61 0 85 -2 23 -4 4 -4 -43z"/>
<path d="M1532 2445 c0 -16 2 -22 5 -12 2 9 2 23 0 30 -3 6 -5 -1 -5 -18z"/>
<path d="M6060 2390 c0 -40 4 -70 10 -70 6 0 10 30 10 70 0 40 -4 70 -10 70
-6 0 -10 -30 -10 -70z"/>
<path d="M4377 2426 c-3 -8 0 -17 7 -19 10 -4 12 1 9 14 -6 23 -9 24 -16 5z"/>
<path d="M5674 2330 c0 -63 1 -89 3 -57 2 31 2 83 0 115 -2 31 -3 5 -3 -58z"/>
<path d="M3330 2413 c0 -10 4 -14 8 -8 4 6 11 13 16 18 5 4 2 7 -7 7 -10 0
-17 -8 -17 -17z"/>
<path d="M3775 2422 c-12 -12 -3 -19 20 -14 14 2 63 1 110 -3 l85 -7 0 -47 0
-46 -111 2 c-61 1 -109 0 -106 -3 2 -3 57 -8 121 -11 l116 -6 0 61 c0 56 -2
62 -22 66 -37 8 -207 14 -213 8z"/>
<path d="M5071 2404 c0 -11 3 -14 6 -6 3 7 2 16 -1 19 -3 4 -6 -2 -5 -13z"/>
<path d="M6404 2315 c0 -55 1 -76 3 -47 2 29 2 74 0 100 -2 26 -3 2 -3 -53z"/>
<path d="M4655 2371 c-4 -8 18 -11 68 -11 l75 0 -5 -42 c-3 -24 -7 -45 -9 -47
-2 -2 -25 1 -52 6 -42 8 -103 1 -91 -11 2 -2 47 -5 99 -7 l95 -4 -4 45 c-1 25
-7 47 -12 48 -5 2 -7 8 -3 13 3 5 -23 9 -60 9 -35 0 -71 3 -79 6 -8 3 -18 1
-22 -5z"/>
<path d="M5071 2313 c0 -40 2 -73 7 -73 4 0 6 24 4 52 -5 89 -9 97 -11 21z"/>
<path d="M1522 2340 c0 -19 2 -27 5 -17 2 9 2 25 0 35 -3 9 -5 1 -5 -18z"/>
<path d="M5470 2313 c0 -12 3 -14 8 -7 4 7 16 14 27 17 15 4 14 5 -7 6 -21 1
-28 -4 -28 -16z"/>
<path d="M5160 2310 c0 -5 12 -10 28 -10 21 0 24 2 12 10 -20 13 -40 13 -40 0z"/>
<path d="M6237 2314 c-4 -4 -7 -26 -7 -49 l0 -42 65 -7 c36 -4 70 -4 75 -1 6
4 10 26 10 51 l0 44 -39 0 c-21 0 -51 3 -67 6 -16 3 -32 2 -37 -2z m43 -24 c0
-5 -7 -10 -15 -10 -8 0 -15 5 -15 10 0 6 7 10 15 10 8 0 15 -4 15 -10z m60
-36 c0 -8 -19 -13 -24 -6 -3 5 1 9 9 9 8 0 15 -2 15 -3z"/>
<path d="M5988 2293 c7 -3 16 -2 19 1 4 3 -2 6 -13 5 -11 0 -14 -3 -6 -6z"/>
<path d="M5606 2254 c-9 -22 -8 -24 9 -24 8 0 15 9 15 20 0 24 -15 27 -24 4z"/>
<path d="M1513 2215 c0 -27 2 -38 4 -22 2 15 2 37 0 50 -2 12 -4 0 -4 -28z"/>
<path d="M5470 2236 c0 -8 60 -12 72 -4 8 4 -4 8 -29 8 -24 0 -43 -2 -43 -4z"/>
<path d="M4164 2219 c26 -6 43 -6 50 1 7 7 -6 10 -39 9 l-50 -1 39 -9z"/>
<path d="M6235 2170 c-2 -4 37 -8 87 -9 51 -1 90 0 88 3 -9 8 -170 15 -175 6z"/>
<path d="M1503 2095 c0 -22 2 -30 4 -17 2 12 2 30 0 40 -3 9 -5 -1 -4 -23z"/>
<path d="M5958 2083 c18 -2 45 -2 60 0 15 2 0 4 -33 4 -33 0 -45 -2 -27 -4z"/>
<path d="M6095 2085 c23 -8 294 -11 289 -4 -3 5 -71 9 -152 8 -81 0 -142 -2
-137 -4z"/>
<path d="M6398 1992 c5 -96 10 -108 11 -27 0 39 -3 76 -7 82 -4 7 -6 -18 -4
-55z"/>
<path d="M2440 1990 c-20 -6 -21 -8 -5 -8 11 0 31 4 45 8 20 6 21 8 5 8 -11 0
-31 -4 -45 -8z"/>
<path d="M6061 1918 c-1 -46 3 -78 9 -78 11 0 11 80 0 125 -6 22 -8 9 -9 -47z"/>
<path d="M1492 1898 c-1 -31 -5 -65 -8 -75 -5 -14 -4 -15 5 -7 8 7 11 34 8 75
l-3 64 -2 -57z"/>
<path d="M6403 1800 c0 -36 2 -50 4 -32 2 17 2 47 0 65 -2 17 -4 3 -4 -33z"/>
<path d="M6060 1629 c0 -44 4 -68 10 -64 6 3 10 35 10 71 0 36 -4 64 -10 64
-6 0 -10 -30 -10 -71z"/>
<path d="M6404 1590 c0 -52 1 -74 3 -47 2 26 2 68 0 95 -2 26 -3 4 -3 -48z"/>
<path d="M2635 1643 c53 -8 58 -18 50 -113 -8 -100 -22 -127 -67 -133 l-33 -4
31 -1 c53 -3 65 15 76 117 14 118 5 142 -49 140 -34 -2 -35 -2 -8 -6z"/>
<path d="M6285 1591 l-50 -6 -3 -48 -3 -49 58 3 c93 4 94 5 91 58 -3 52 -6 53
-93 42z m-5 -26 c0 -8 -7 -15 -15 -15 -16 0 -20 12 -8 23 11 12 23 8 23 -8z
m60 -14 c0 -6 -4 -13 -10 -16 -5 -3 -10 1 -10 9 0 9 5 16 10 16 6 0 10 -4 10
-9z"/>
<path d="M2220 1571 c-40 -21 -78 -77 -63 -92 6 -6 39 -9 74 -7 l64 3 3 58 c3
54 2 57 -20 57 -13 0 -39 -8 -58 -19z"/>
<path d="M274 1570 c-29 -12 -36 -47 -24 -127 5 -37 10 -92 10 -121 0 -58 22
-112 45 -112 19 0 19 16 1 138 -8 53 -16 122 -18 152 -3 53 -2 55 24 58 25 3
28 0 34 -38 5 -29 13 -44 28 -50 40 -15 600 -90 609 -81 4 4 9 23 9 40 1 33 5
35 51 16 11 -5 17 -3 17 7 0 25 -63 39 -389 84 -338 46 -363 48 -397 34z"/>
<path d="M5980 1530 c0 -13 11 -13 30 0 12 8 11 10 -7 10 -13 0 -23 -4 -23
-10z"/>
<path d="M1472 1475 c0 -16 2 -22 5 -12 2 9 2 23 0 30 -3 6 -5 -1 -5 -18z"/>
<path d="M5911 1484 c0 -11 3 -14 6 -6 3 7 2 16 -1 19 -3 4 -6 -2 -5 -13z"/>
<path d="M1980 1389 c-7 -11 -10 -23 -7 -25 2 -2 9 7 15 21 14 30 7 33 -8 4z"/>
<path d="M320 1381 c0 -6 14 -11 30 -11 28 0 30 -2 30 -39 0 -63 14 -87 52
-94 18 -3 141 -28 273 -56 132 -27 243 -47 247 -45 5 3 8 27 8 55 0 27 4 49 9
49 5 0 25 -7 44 -15 36 -15 58 -6 34 13 -25 20 -109 41 -362 90 -308 60 -365
68 -365 53z"/>
<path d="M2528 1383 c12 -2 30 -2 40 0 9 3 -1 5 -23 4 -22 0 -30 -2 -17 -4z"/>
<path d="M2330 1369 c0 -5 11 -9 25 -9 14 0 25 2 25 4 0 2 -11 6 -25 8 -14 3
-25 1 -25 -3z"/>
<path d="M2433 1373 c9 -2 25 -2 35 0 9 3 1 5 -18 5 -19 0 -27 -2 -17 -5z"/>
<path d="M600 63 c0 -5 22 -20 49 -35 40 -23 61 -28 112 -27 l64 1 -100 33
c-105 35 -125 40 -125 28z"/>
</g>
</svg>
